<svg width="401" height="458" viewBox="0 0 401 458" fill="none" xmlns="http://www.w3.org/2000/svg">
<path d="M220.968 50.2119C141.117 73.5299 22.6953 141.438 187.823 226.525C352.95 311.613 196.122 345.577 97.0673 351.923" stroke="#C725E1" stroke-width="10"/>
<path d="M272.5 72.5C192.648 95.8181 69.6951 141.438 234.822 226.525C399.95 311.613 256.555 369.154 157.5 375.5" stroke="#C725E1" stroke-width="10"/>
<path d="M119.5 56.5L243.5 400.5" stroke="#C725E1" stroke-width="10"/>
<g filter="url(#filter0_f_12_90)">
<path d="M240.968 55.2119C161.117 78.5299 42.6953 146.438 207.823 231.525C372.95 316.613 216.122 350.577 117.067 356.923" stroke="#C725E1" stroke-width="10"/>
</g>
<g filter="url(#filter1_f_12_90)">
<path d="M292.5 77.5C212.648 100.818 89.6951 146.438 254.822 231.525C419.95 316.613 276.555 374.154 177.5 380.5" stroke="#C725E1" stroke-width="10"/>
</g>
<g filter="url(#filter2_f_12_90)">
<path d="M139.5 61.5L263.5 405.5" stroke="#C725E1" stroke-width="10"/>
</g>
<defs>
<filter id="filter0_f_12_90" x="66.7476" y="0.412354" width="268.151" height="411.501" filterUnits="userSpaceOnUse" color-interpolation-filters="sRGB">
<feFlood flood-opacity="0" result="BackgroundImageFix"/>
<feBlend mode="normal" in="SourceGraphic" in2="BackgroundImageFix" result="shape"/>
<feGaussianBlur stdDeviation="25" result="effect1_foregroundBlur_12_90"/>
</filter>
<filter id="filter1_f_12_90" x="118.037" y="22.7005" width="267.148" height="412.789" filterUnits="userSpaceOnUse" color-interpolation-filters="sRGB">
<feFlood flood-opacity="0" result="BackgroundImageFix"/>
<feBlend mode="normal" in="SourceGraphic" in2="BackgroundImageFix" result="shape"/>
<feGaussianBlur stdDeviation="25" result="effect1_foregroundBlur_12_90"/>
</filter>
<filter id="filter2_f_12_90" x="84.7964" y="9.80444" width="233.407" height="447.391" filterUnits="userSpaceOnUse" color-interpolation-filters="sRGB">
<feFlood flood-opacity="0" result="BackgroundImageFix"/>
<feBlend mode="normal" in="SourceGraphic" in2="BackgroundImageFix" result="shape"/>
<feGaussianBlur stdDeviation="25" result="effect1_foregroundBlur_12_90"/>
</filter>
</defs>
</svg>
