<svg width="430" height="414" viewBox="0 0 430 414" fill="none" xmlns="http://www.w3.org/2000/svg">
<path d="M44 123.652V217.912H174.728M174.728 217.912V81M174.728 217.912H266.579L314 144.551M174.728 217.912V348" stroke="#C725E1" stroke-width="20"/>
<circle cx="44" cy="111" r="30" fill="#C725E1"/>
<circle cx="174" cy="67" r="30" fill="#C725E1"/>
<circle cx="314" cy="141" r="30" fill="#C725E1"/>
<g filter="url(#filter0_f_12_92)">
<path d="M71 139.652V233.912H201.728M201.728 233.912V97M201.728 233.912H293.579L341 160.551M201.728 233.912V364" stroke="#C725E1" stroke-width="20"/>
</g>
<g filter="url(#filter1_f_12_92)">
<circle cx="80" cy="124" r="30" fill="#C725E1"/>
</g>
<g filter="url(#filter2_f_12_92)">
<circle cx="210" cy="80" r="30" fill="#C725E1"/>
</g>
<g filter="url(#filter3_f_12_92)">
<circle cx="350" cy="154" r="30" fill="#C725E1"/>
</g>
<defs>
<filter id="filter0_f_12_92" x="11" y="47" width="388.398" height="367" filterUnits="userSpaceOnUse" color-interpolation-filters="sRGB">
<feFlood flood-opacity="0" result="BackgroundImageFix"/>
<feBlend mode="normal" in="SourceGraphic" in2="BackgroundImageFix" result="shape"/>
<feGaussianBlur stdDeviation="25" result="effect1_foregroundBlur_12_92"/>
</filter>
<filter id="filter1_f_12_92" x="0" y="44" width="160" height="160" filterUnits="userSpaceOnUse" color-interpolation-filters="sRGB">
<feFlood flood-opacity="0" result="BackgroundImageFix"/>
<feBlend mode="normal" in="SourceGraphic" in2="BackgroundImageFix" result="shape"/>
<feGaussianBlur stdDeviation="25" result="effect1_foregroundBlur_12_92"/>
</filter>
<filter id="filter2_f_12_92" x="130" y="0" width="160" height="160" filterUnits="userSpaceOnUse" color-interpolation-filters="sRGB">
<feFlood flood-opacity="0" result="BackgroundImageFix"/>
<feBlend mode="normal" in="SourceGraphic" in2="BackgroundImageFix" result="shape"/>
<feGaussianBlur stdDeviation="25" result="effect1_foregroundBlur_12_92"/>
</filter>
<filter id="filter3_f_12_92" x="270" y="74" width="160" height="160" filterUnits="userSpaceOnUse" color-interpolation-filters="sRGB">
<feFlood flood-opacity="0" result="BackgroundImageFix"/>
<feBlend mode="normal" in="SourceGraphic" in2="BackgroundImageFix" result="shape"/>
<feGaussianBlur stdDeviation="25" result="effect1_foregroundBlur_12_92"/>
</filter>
</defs>
</svg>
