<svg width="488" height="381" viewBox="0 0 488 381" fill="none" xmlns="http://www.w3.org/2000/svg">
<path d="M187.5 268.373C93.5 278.5 44.6542 166.573 179.054 159.373C186.254 89.3726 274.554 44.3727 303.054 159.373C361.5 151.5 464 248 290.5 268.373" stroke="#C725E1" stroke-width="20"/>
<g filter="url(#filter0_f_12_93)">
<path d="M182.742 170.373C48.3422 177.573 97.188 289.5 191.188 279.373C501.5 296.5 365.188 162.5 306.742 170.373C278.242 55.3727 189.942 100.373 182.742 170.373Z" fill="#E387F2"/>
</g>
<path d="M205.504 250V344M205.504 344L179 319.391M205.504 344L230 319.391" stroke="#C725E1" stroke-width="10"/>
<path d="M255.496 345L255.496 251M255.496 251L282 275.609M255.496 251L231 275.609" stroke="#C725E1" stroke-width="10"/>
<defs>
<filter id="filter0_f_12_93" x="0" y="0" width="487.357" height="380.887" filterUnits="userSpaceOnUse" color-interpolation-filters="sRGB">
<feFlood flood-opacity="0" result="BackgroundImageFix"/>
<feBlend mode="normal" in="SourceGraphic" in2="BackgroundImageFix" result="shape"/>
<feGaussianBlur stdDeviation="50" result="effect1_foregroundBlur_12_93"/>
</filter>
</defs>
</svg>
