<svg width="24" height="28" viewBox="0 0 24 28" fill="none" xmlns="http://www.w3.org/2000/svg">
<g filter="url(#filter0_d_1983_1337)">
<path d="M13.5 5C13.7761 5 14 5.22386 14 5.5C14 5.77614 14.2239 6 14.5 6C14.7761 6 15 6.22386 15 6.5V7C15 7.27614 14.7761 7.5 14.5 7.5H9.5C9.22386 7.5 9 7.27614 9 7V6.5C9 6.22386 9.22386 6 9.5 6C9.77614 6 10 5.77614 10 5.5C10 5.22386 10.2239 5 10.5 5H13.5Z" fill="url(#paint0_linear_1983_1337)"/>
<path d="M7 7.5C7 7.22386 7.22386 7 7.5 7H8C8.27614 7 8.5 6.77614 8.5 6.5C8.5 6.22386 8.27614 6 8 6H7.5C6.67157 6 6 6.67157 6 7.5V19.5C6 20.3284 6.67157 21 7.5 21H16.5C17.3284 21 18 20.3284 18 19.5V7.5C18 6.67157 17.3284 6 16.5 6H16C15.7239 6 15.5 6.22386 15.5 6.5C15.5 6.77614 15.7239 7 16 7H16.5C16.7761 7 17 7.22386 17 7.5V19.5C17 19.7761 16.7761 20 16.5 20H7.5C7.22386 20 7 19.7761 7 19.5V7.5Z" fill="url(#paint1_linear_1983_1337)"/>
<path d="M14 12C14 11.4477 14.4477 11 15 11C15.5523 11 16 11.4477 16 12V17C16 17.5523 15.5523 18 15 18C14.4477 18 14 17.5523 14 17V12Z" fill="url(#paint2_linear_1983_1337)"/>
<path d="M8 16C8 15.4477 8.44772 15 9 15C9.55228 15 10 15.4477 10 16V17C10 17.5523 9.55228 18 9 18C8.44772 18 8 17.5523 8 17V16Z" fill="url(#paint3_linear_1983_1337)"/>
<path d="M12 13C11.4477 13 11 13.4477 11 14V17C11 17.5523 11.4477 18 12 18C12.5523 18 13 17.5523 13 17V14C13 13.4477 12.5523 13 12 13Z" fill="url(#paint4_linear_1983_1337)"/>
</g>
<defs>
<filter id="filter0_d_1983_1337" x="-2" y="0" width="28" height="28" filterUnits="userSpaceOnUse" color-interpolation-filters="sRGB">
<feFlood flood-opacity="0" result="BackgroundImageFix"/>
<feColorMatrix in="SourceAlpha" type="matrix" values="0 0 0 0 0 0 0 0 0 0 0 0 0 0 0 0 0 0 127 0" result="hardAlpha"/>
<feOffset dy="1"/>
<feGaussianBlur stdDeviation="3"/>
<feComposite in2="hardAlpha" operator="out"/>
<feColorMatrix type="matrix" values="0 0 0 0 0 0 0 0 0 0 0 0 0 0 0 0 0 0 0.25 0"/>
<feBlend mode="normal" in2="BackgroundImageFix" result="effect1_dropShadow_1983_1337"/>
<feBlend mode="normal" in="SourceGraphic" in2="effect1_dropShadow_1983_1337" result="shape"/>
</filter>
<linearGradient id="paint0_linear_1983_1337" x1="12" y1="5" x2="12" y2="21" gradientUnits="userSpaceOnUse">
<stop stop-color="#0C0F38"/>
<stop offset="0.885417" stop-color="#F5BAFF"/>
</linearGradient>
<linearGradient id="paint1_linear_1983_1337" x1="12" y1="5" x2="12" y2="21" gradientUnits="userSpaceOnUse">
<stop stop-color="#0C0F38"/>
<stop offset="0.885417" stop-color="#F5BAFF"/>
</linearGradient>
<linearGradient id="paint2_linear_1983_1337" x1="12" y1="5" x2="12" y2="21" gradientUnits="userSpaceOnUse">
<stop stop-color="#0C0F38"/>
<stop offset="0.885417" stop-color="#F5BAFF"/>
</linearGradient>
<linearGradient id="paint3_linear_1983_1337" x1="12" y1="5" x2="12" y2="21" gradientUnits="userSpaceOnUse">
<stop stop-color="#0C0F38"/>
<stop offset="0.885417" stop-color="#F5BAFF"/>
</linearGradient>
<linearGradient id="paint4_linear_1983_1337" x1="12" y1="5" x2="12" y2="21" gradientUnits="userSpaceOnUse">
<stop stop-color="#0C0F38"/>
<stop offset="0.885417" stop-color="#F5BAFF"/>
</linearGradient>
</defs>
</svg>
