<svg width="20" height="23" viewBox="0 0 20 23" fill="none" xmlns="http://www.w3.org/2000/svg">
<g filter="url(#filter0_d_2923_784)">
<path d="M5.90401 2.77705C6.97802 2.28886 8.42664 2 10 2C11.5734 2 13.022 2.28886 14.096 2.77705C15.1249 3.24472 16 3.993 16 5C16 6.007 15.1249 6.75528 14.096 7.22295C13.022 7.71114 11.5734 8 10 8C8.42664 8 6.97802 7.71114 5.90401 7.22295C4.87513 6.75528 4 6.007 4 5C4 3.993 4.87513 3.24472 5.90401 2.77705Z" fill="url(#paint0_linear_2923_784)"/>
<path d="M4 7.16101V8C4 9.007 4.87513 9.75528 5.90401 10.223C6.97802 10.7111 8.42664 11 10 11C11.5734 11 13.022 10.7111 14.096 10.223C15.1249 9.75528 16 9.007 16 8V7.16101C15.5427 7.59277 14.9958 7.91242 14.5098 8.13332C13.2783 8.69307 11.6825 9 10 9C8.31752 9 6.72165 8.69307 5.49021 8.13332C5.00423 7.91242 4.45727 7.59277 4 7.16101Z" fill="url(#paint1_linear_2923_784)"/>
<path d="M4 10.161V11C4 12.007 4.87513 12.7553 5.90401 13.223C6.97802 13.7111 8.42664 14 10 14C11.5734 14 13.022 13.7111 14.096 13.223C15.1249 12.7553 16 12.007 16 11V10.161C15.5427 10.5928 14.9958 10.9124 14.5098 11.1333C13.2783 11.6931 11.6825 12 10 12C8.31752 12 6.72165 11.6931 5.49021 11.1333C5.00423 10.9124 4.45727 10.5928 4 10.161Z" fill="url(#paint2_linear_2923_784)"/>
<path d="M4 13.161V14C4 15.007 4.87513 15.7553 5.90401 16.223C6.97802 16.7111 8.42664 17 10 17C11.5734 17 13.022 16.7111 14.096 16.223C15.1249 15.7553 16 15.007 16 14V13.161C15.5427 13.5928 14.9958 13.9124 14.5098 14.1333C13.2783 14.6931 11.6825 15 10 15C8.31752 15 6.72165 14.6931 5.49021 14.1333C5.00423 13.9124 4.45727 13.5928 4 13.161Z" fill="url(#paint3_linear_2923_784)"/>
</g>
<defs>
<filter id="filter0_d_2923_784" x="-2" y="-1" width="24" height="24" filterUnits="userSpaceOnUse" color-interpolation-filters="sRGB">
<feFlood flood-opacity="0" result="BackgroundImageFix"/>
<feColorMatrix in="SourceAlpha" type="matrix" values="0 0 0 0 0 0 0 0 0 0 0 0 0 0 0 0 0 0 127 0" result="hardAlpha"/>
<feOffset dy="2"/>
<feGaussianBlur stdDeviation="2"/>
<feComposite in2="hardAlpha" operator="out"/>
<feColorMatrix type="matrix" values="0 0 0 0 0 0 0 0 0 0 0 0 0 0 0 0 0 0 0.25 0"/>
<feBlend mode="normal" in2="BackgroundImageFix" result="effect1_dropShadow_2923_784"/>
<feBlend mode="normal" in="SourceGraphic" in2="effect1_dropShadow_2923_784" result="shape"/>
</filter>
<linearGradient id="paint0_linear_2923_784" x1="10" y1="2" x2="10" y2="17" gradientUnits="userSpaceOnUse">
<stop stop-color="#0C0F38"/>
<stop offset="1" stop-color="#F5BAFF"/>
</linearGradient>
<linearGradient id="paint1_linear_2923_784" x1="10" y1="2" x2="10" y2="17" gradientUnits="userSpaceOnUse">
<stop stop-color="#0C0F38"/>
<stop offset="1" stop-color="#F5BAFF"/>
</linearGradient>
<linearGradient id="paint2_linear_2923_784" x1="10" y1="2" x2="10" y2="17" gradientUnits="userSpaceOnUse">
<stop stop-color="#0C0F38"/>
<stop offset="1" stop-color="#F5BAFF"/>
</linearGradient>
<linearGradient id="paint3_linear_2923_784" x1="10" y1="2" x2="10" y2="17" gradientUnits="userSpaceOnUse">
<stop stop-color="#0C0F38"/>
<stop offset="1" stop-color="#F5BAFF"/>
</linearGradient>
</defs>
</svg>
