<svg width="26" height="22" viewBox="0 0 26 22" fill="none" xmlns="http://www.w3.org/2000/svg">
<g filter="url(#filter0_d_1287_3999)">
<path d="M5 5C5 3.89543 5.89543 3 7 3H19C20.1046 3 21 3.89543 21 5V13C21 14.1046 20.1046 15 19 15H7C5.89543 15 5 14.1046 5 13V5ZM7 4C6.44772 4 6 4.44772 6 5V5.2169L13 9.4169L20 5.2169V5C20 4.44772 19.5523 4 19 4H7ZM20 6.3831L15.2919 9.20794L20 12.1052V6.3831ZM19.9662 13.2586L14.3258 9.7876L13 10.5831L11.6742 9.7876L6.03376 13.2586C6.14774 13.6855 6.53715 14 7 14H19C19.4628 14 19.8523 13.6855 19.9662 13.2586ZM6 12.1052L10.7081 9.20794L6 6.3831V12.1052Z" fill="url(#paint0_linear_1287_3999)"/>
</g>
<defs>
<filter id="filter0_d_1287_3999" x="0" y="-2" width="26" height="26" filterUnits="userSpaceOnUse" color-interpolation-filters="sRGB">
<feFlood flood-opacity="0" result="BackgroundImageFix"/>
<feColorMatrix in="SourceAlpha" type="matrix" values="0 0 0 0 0 0 0 0 0 0 0 0 0 0 0 0 0 0 127 0" result="hardAlpha"/>
<feOffset dy="2"/>
<feGaussianBlur stdDeviation="2.5"/>
<feComposite in2="hardAlpha" operator="out"/>
<feColorMatrix type="matrix" values="0 0 0 0 0 0 0 0 0 0 0 0 0 0 0 0 0 0 0.25 0"/>
<feBlend mode="normal" in2="BackgroundImageFix" result="effect1_dropShadow_1287_3999"/>
<feBlend mode="normal" in="SourceGraphic" in2="effect1_dropShadow_1287_3999" result="shape"/>
</filter>
<linearGradient id="paint0_linear_1287_3999" x1="13" y1="3" x2="13" y2="15" gradientUnits="userSpaceOnUse">
<stop stop-color="#0C0F38"/>
<stop offset="1" stop-color="#F5BAFF"/>
</linearGradient>
</defs>
</svg>
