<svg width="37" height="39" viewBox="0 0 37 39" fill="none" xmlns="http://www.w3.org/2000/svg">
<g filter="url(#filter0_d_3803_900)">
<path d="M12 27.5C12 27.2239 12.2239 27 12.5 27H15.5C15.7761 27 16 27.2239 16 27.5C16 27.7761 15.7761 28 15.5 28H12.5C12.2239 28 12 27.7761 12 27.5Z" fill="url(#paint0_linear_3803_900)"/>
<path d="M9 23.0616C9 21.7604 10.2347 20.7646 11.5302 20.8858C12.2378 20.952 13.0709 21 14 21C14.9291 21 15.7622 20.952 16.4698 20.8858C17.7653 20.7646 19 21.7604 19 23.0616V24.2192C19 24.6781 18.6875 25.075 18.2354 25.1536C17.3904 25.3006 15.8946 25.5 14 25.5C12.1054 25.5 10.6096 25.3006 9.76458 25.1536C9.3125 25.075 9 24.6781 9 24.2192V23.0616ZM13.542 22.235C13.4631 22.2216 13.3825 22.2467 13.3253 22.3026L12.4043 23.2022C11.6772 23.1585 11.0461 23.09 10.534 23.0198C10.3972 23.0011 10.2711 23.0968 10.2523 23.2335C10.2336 23.3703 10.3293 23.4964 10.466 23.5152C11.0157 23.5905 11.698 23.6637 12.486 23.7078C12.5561 23.7117 12.6245 23.686 12.6747 23.637L13.4287 22.9006L14.276 24.611C14.3121 24.684 14.3815 24.7347 14.462 24.7471C14.5425 24.7595 14.624 24.7319 14.6804 24.6731L15.6124 23.7021C16.3589 23.6576 17.0073 23.5874 17.534 23.5152C17.6707 23.4964 17.7664 23.3703 17.7477 23.2335C17.7289 23.0968 17.6028 23.0011 17.466 23.0198C16.9283 23.0935 16.2594 23.1653 15.486 23.2086C15.4229 23.2121 15.3634 23.2395 15.3196 23.2851L14.5661 24.0702L13.724 22.3705C13.6885 22.2988 13.6208 22.2484 13.542 22.235Z" fill="url(#paint1_linear_3803_900)"/>
<path d="M14.5 16.8662C14.7989 16.6933 15 16.3701 15 16C15 15.4477 14.5523 15 14 15C13.4477 15 13 15.4477 13 16C13 16.3701 13.2011 16.6933 13.5 16.8662V18H11.5C9.01472 18 7 20.0147 7 22.5V23C6.44772 23 6 23.4477 6 24V26C6 26.5523 6.44772 27 7 27V28C7 29.1046 7.89543 30 9 30H19C20.1046 30 21 29.1046 21 28V27C21.5523 27 22 26.5523 22 26V24C22 23.4477 21.5523 23 21 23V22.5C21 20.0147 18.9853 18 16.5 18H14.5V16.8662ZM20 22.5V28C20 28.5523 19.5523 29 19 29H9C8.44772 29 8 28.5523 8 28V22.5C8 20.567 9.567 19 11.5 19H16.5C18.433 19 20 20.567 20 22.5Z" fill="url(#paint2_linear_3803_900)"/>
<path d="M29 5C29.5523 5 30 5.44772 30 6V14C30 14.5523 29.5523 15 29 15H26.5C25.8705 15 25.2777 15.2964 24.9 15.8L23 18.3333L21.1 15.8C20.7223 15.2964 20.1295 15 19.5 15H17C16.4477 15 16 14.5523 16 14V6C16 5.44772 16.4477 5 17 5H29ZM17 4C15.8954 4 15 4.89543 15 6V14C15 15.1046 15.8954 16 17 16H19.5C19.8148 16 20.1111 16.1482 20.3 16.4L22.2 18.9333C22.6 19.4667 23.4 19.4667 23.8 18.9333L25.7 16.4C25.8889 16.1482 26.1852 16 26.5 16H29C30.1046 16 31 15.1046 31 14V6C31 4.89543 30.1046 4 29 4H17Z" fill="url(#paint3_linear_3803_900)"/>
<path d="M18 7.5C18 7.22386 18.2239 7 18.5 7H27.5C27.7761 7 28 7.22386 28 7.5C28 7.77614 27.7761 8 27.5 8H18.5C18.2239 8 18 7.77614 18 7.5ZM18 10C18 9.72386 18.2239 9.5 18.5 9.5H27.5C27.7761 9.5 28 9.72386 28 10C28 10.2761 27.7761 10.5 27.5 10.5H18.5C18.2239 10.5 18 10.2761 18 10ZM18 12.5C18 12.2239 18.2239 12 18.5 12H23.5C23.7761 12 24 12.2239 24 12.5C24 12.7761 23.7761 13 23.5 13H18.5C18.2239 13 18 12.7761 18 12.5Z" fill="url(#paint4_linear_3803_900)"/>
</g>
<defs>
<filter id="filter0_d_3803_900" x="0" y="0" width="37" height="39" filterUnits="userSpaceOnUse" color-interpolation-filters="sRGB">
<feFlood flood-opacity="0" result="BackgroundImageFix"/>
<feColorMatrix in="SourceAlpha" type="matrix" values="0 0 0 0 0 0 0 0 0 0 0 0 0 0 0 0 0 0 127 0" result="hardAlpha"/>
<feOffset dy="2"/>
<feGaussianBlur stdDeviation="3"/>
<feComposite in2="hardAlpha" operator="out"/>
<feColorMatrix type="matrix" values="0 0 0 0 0 0 0 0 0 0 0 0 0 0 0 0 0 0 0.25 0"/>
<feBlend mode="normal" in2="BackgroundImageFix" result="effect1_dropShadow_3803_900"/>
<feBlend mode="normal" in="SourceGraphic" in2="effect1_dropShadow_3803_900" result="shape"/>
</filter>
<linearGradient id="paint0_linear_3803_900" x1="14" y1="15" x2="14" y2="30" gradientUnits="userSpaceOnUse">
<stop stop-color="#0C0F38"/>
<stop offset="0.848958" stop-color="#F5BAFF"/>
</linearGradient>
<linearGradient id="paint1_linear_3803_900" x1="14" y1="15" x2="14" y2="30" gradientUnits="userSpaceOnUse">
<stop stop-color="#0C0F38"/>
<stop offset="0.848958" stop-color="#F5BAFF"/>
</linearGradient>
<linearGradient id="paint2_linear_3803_900" x1="14" y1="15" x2="14" y2="30" gradientUnits="userSpaceOnUse">
<stop stop-color="#0C0F38"/>
<stop offset="0.848958" stop-color="#F5BAFF"/>
</linearGradient>
<linearGradient id="paint3_linear_3803_900" x1="23" y1="4" x2="23" y2="19.3333" gradientUnits="userSpaceOnUse">
<stop stop-color="#0C0F38"/>
<stop offset="0.848958" stop-color="#F5BAFF"/>
</linearGradient>
<linearGradient id="paint4_linear_3803_900" x1="23" y1="4" x2="23" y2="19.3333" gradientUnits="userSpaceOnUse">
<stop stop-color="#0C0F38"/>
<stop offset="0.848958" stop-color="#F5BAFF"/>
</linearGradient>
</defs>
</svg>
