<svg width="746" height="629" viewBox="0 0 746 629" fill="none" xmlns="http://www.w3.org/2000/svg">
<circle cx="247.326" cy="296.588" r="3.4603" fill="#7DEEFE"/>
<path d="M480.089 508.067C480.094 508.5 479.75 509.341 478.186 510.54C476.694 511.684 474.403 512.911 471.326 514.168C465.191 516.675 456.237 519.185 445.115 521.437C422.891 525.937 392.23 529.361 358.654 529.734C325.068 530.106 293.601 527.616 270.946 523.655C259.603 521.672 250.548 519.333 244.554 516.836C241.543 515.582 239.423 514.335 238.167 513.158C236.919 511.989 236.762 511.144 236.935 510.514L235.489 510.116L236.935 510.514C237.174 509.645 237.956 508.642 239.66 507.581C241.344 506.532 243.746 505.543 246.864 504.63C253.092 502.806 261.88 501.37 272.757 500.251C294.49 498.014 324.27 497.069 357.925 496.695C391.566 496.322 422.399 496.976 444.815 498.996C456.036 500.008 465.075 501.355 471.285 503.063C474.401 503.92 476.703 504.84 478.197 505.792C479.729 506.768 480.083 507.553 480.089 508.067Z" fill="#6EB1FF" stroke="#8934B1" stroke-width="3"/>
<path d="M462.042 205.102C462.041 207.057 461.275 208.667 459.732 210.061C458.14 211.498 455.705 212.711 452.411 213.69C445.824 215.649 436.316 216.525 424.784 216.794C413.281 217.063 399.904 216.728 385.631 216.322C384.359 216.286 383.08 216.249 381.794 216.212C368.672 215.835 354.896 215.438 341.257 215.43C316.398 215.416 293.849 219.034 276.068 221.886C272.36 222.481 268.859 223.043 265.588 223.532C256.031 224.959 248.601 225.733 243.585 225.02C241.093 224.666 239.401 223.969 238.339 222.986C237.329 222.052 236.718 220.699 236.72 218.6C236.722 214.365 239.723 208.752 245.633 202.569C251.476 196.455 259.929 190.03 270.283 184.18C290.992 172.479 319.109 163.186 348.71 163.203C378.426 163.221 406.949 169.195 428.002 177.547C438.534 181.725 447.131 186.473 453.065 191.317C459.063 196.213 462.044 200.959 462.042 205.102Z" fill="#6FB1FF" stroke="#FB31FF" stroke-width="3"/>
<rect x="579.919" y="118.78" width="35.0633" height="145.793" rx="8.5" transform="rotate(30.023 579.919 118.78)" fill="#6FB1FF" stroke="#8934B1" stroke-width="3"/>
<rect x="90.0454" y="160.921" width="34.5516" height="145.793" rx="8.5" transform="rotate(-38.2701 90.0454 160.921)" fill="#6FB1FF" stroke="#8934B1" stroke-width="3"/>
<path d="M660.095 309.531C660.709 356.288 626.79 399.394 570.739 431.186C514.741 462.948 436.969 483.205 350.704 484.337C264.43 485.468 196.437 467.701 149.908 437.929C103.458 408.207 78.4101 366.545 77.7448 319.635C85.3166 277.796 108.11 242.1 150.454 216.53C192.902 190.898 255.079 175.397 341.404 174.264C427.771 173.131 507.299 183.533 565.331 206.019C623.42 228.526 659.484 262.911 660.095 309.531Z" fill="#6FB1FF" stroke="#FB31FF" stroke-width="3"/>
<path d="M580.748 316.259C581.103 350.079 555.225 381.338 512.277 404.408C469.4 427.441 409.881 442.079 343.893 442.774C277.896 443.468 225.963 430.423 190.493 408.698C155.104 387.024 136.148 356.758 135.736 322.784C141.612 292.461 159.058 266.592 191.429 248.077C223.91 229.499 271.474 218.3 337.519 217.605C403.603 216.909 464.403 224.609 508.715 241.064C553.11 257.551 580.393 282.578 580.748 316.259Z" fill="#4A85CB" stroke="#FB31FF" stroke-width="3"/>
<path fill-rule="evenodd" clip-rule="evenodd" d="M303.758 371.347C307.83 383.902 316.636 395.499 329.508 403.857C358.92 422.957 390.333 397.919 406.712 372.695C406.913 372.385 407.11 372.077 407.303 371.77L397.17 371.729C384.98 380.947 368.633 386.255 350.885 385.512C335.236 384.856 321.065 379.603 310.133 371.373L303.758 371.347Z" fill="#203E62"/>
<path d="M260.646 275.291C239.738 266.213 237.541 311.082 239.056 334.651C243.222 323.885 248.828 302.003 256.101 293.623C263.373 285.243 291.706 310.5 302.69 325.049C297.388 312.246 281.555 284.37 260.646 275.291Z" fill="#203E62"/>
<path d="M421.946 275.291C445.115 266.213 447.55 311.082 445.871 334.651C441.254 323.885 435.042 302.003 426.983 293.623C418.924 285.243 387.529 310.5 375.357 325.049C381.233 312.246 398.777 284.37 421.946 275.291Z" fill="#203E62"/>
<circle cx="404.769" cy="293.128" r="3.4603" fill="#7DEEFE"/>
<circle cx="247.326" cy="293.128" r="3.4603" fill="#7DEEFE"/>
</svg>
