<svg width="418" height="257" viewBox="0 0 418 257" fill="none" xmlns="http://www.w3.org/2000/svg">
<path d="M91.6 69.1201H115.92V180H91.6V136.16H69.52V180H45.2V69.1201H69.52V114.72H91.6V69.1201ZM128.916 84.3841H148.244V180H128.916V84.3841ZM256.039 94.5601V104.96C256.039 115.307 252.252 121.653 244.679 124C252.892 125.92 256.999 132.32 256.999 143.2V154.56C256.999 171.52 247.932 180 229.799 180H190.919V69.1201H228.839C246.972 69.1201 256.039 77.6001 256.039 94.5601ZM224.839 89.2801H214.919V113.44H224.839C229.852 113.44 232.359 111.147 232.359 106.56V96.1601C232.359 91.5734 229.852 89.2801 224.839 89.2801ZM233.319 152.96V141.6C233.319 137.013 230.812 134.72 225.799 134.72H214.919V159.84H225.799C230.812 159.84 233.319 157.547 233.319 152.96ZM305.345 110.56C305.345 106.507 303.105 104.48 298.625 104.48C294.145 104.48 291.905 106.507 291.905 110.56V155.04C291.905 159.093 294.145 161.12 298.625 161.12C303.105 161.12 305.345 159.093 305.345 155.04V110.56ZM268.225 109.76C268.225 101.653 270.732 95.3601 275.745 90.8801C280.865 86.2934 288.492 84.0001 298.625 84.0001C308.758 84.0001 316.332 86.2934 321.345 90.8801C326.465 95.3601 329.025 101.653 329.025 109.76V155.84C329.025 163.947 326.465 170.293 321.345 174.88C316.332 179.36 308.758 181.6 298.625 181.6C288.492 181.6 280.865 179.36 275.745 174.88C270.732 170.293 268.225 163.947 268.225 155.84V109.76ZM374.176 159.68C377.483 159.68 380.523 158.933 383.296 157.44V178.88C379.67 180.587 374.923 181.44 369.056 181.44C359.99 181.44 353.536 179.307 349.696 175.04C345.856 170.773 343.936 164.587 343.936 156.48V105.92H335.456V85.6001H345.056L352.416 69.2801H368.096V85.6001H382.336V105.92H368.096V153.92C368.096 157.76 370.123 159.68 374.176 159.68Z" fill="white" fill-opacity="0.71"/>
<g clip-path="url(#clip0_9_137)">
<path d="M152.58 66.7695C151.667 74.2051 144.899 79.4927 137.463 78.5797C130.028 77.6667 124.74 70.8989 125.653 63.4634C126.566 56.0278 133.334 50.7402 140.769 51.6532C148.205 52.5661 153.493 59.334 152.58 66.7695ZM140.032 61.6517C138.655 62.0355 135.9 62.8415 131.765 64.0696C131.096 64.2448 130.732 64.4517 130.672 64.6904C130.57 65.0938 131.064 65.3182 131.735 65.6237C131.827 65.6652 131.921 65.7083 132.018 65.7535C132.678 66.0613 133.571 66.4363 134.05 66.5057C134.485 66.5687 134.994 66.4487 135.576 66.1457C139.548 64.1206 141.594 63.1018 141.716 63.0894C141.802 63.0807 141.922 63.071 141.992 63.1507C142.062 63.2303 142.038 63.3619 142.025 63.3964C141.948 63.6068 139.704 65.232 138.542 66.073C138.18 66.3352 137.924 66.5212 137.87 66.5643C137.751 66.661 137.631 66.7515 137.516 66.8385C136.801 67.3757 136.266 67.7785 137.317 68.6729C137.823 69.1027 138.226 69.4563 138.628 69.8091C139.067 70.1944 139.505 70.5786 140.074 71.0601C140.219 71.1827 140.356 71.3085 140.49 71.431C140.999 71.8972 141.456 72.316 142.082 72.335C142.446 72.3461 142.859 72.0534 143.172 71.0677C143.911 68.7381 145.422 63.6796 145.886 61.5756C145.926 61.3913 145.933 61.1498 145.928 61.0428C145.923 60.9358 145.904 60.7819 145.781 60.6547C145.636 60.504 145.391 60.4458 145.279 60.4341C144.771 60.3809 143.961 60.5556 140.032 61.6517Z" fill="white" fill-opacity="0.71"/>
</g>
<path d="M102.6 57.1201H126.92V168H102.6V124.16H80.52V168H56.2V57.1201H80.52V102.72H102.6V57.1201ZM139.916 72.3841H159.244V168H139.916V72.3841ZM267.039 82.5601V92.9601C267.039 103.307 263.252 109.653 255.679 112C263.892 113.92 267.999 120.32 267.999 131.2V142.56C267.999 159.52 258.932 168 240.799 168H201.919V57.1201H239.839C257.972 57.1201 267.039 65.6001 267.039 82.5601ZM235.839 77.2801H225.919V101.44H235.839C240.852 101.44 243.359 99.1468 243.359 94.5601V84.1601C243.359 79.5734 240.852 77.2801 235.839 77.2801ZM244.319 140.96V129.6C244.319 125.013 241.812 122.72 236.799 122.72H225.919V147.84H236.799C241.812 147.84 244.319 145.547 244.319 140.96ZM316.345 98.5601C316.345 94.5068 314.105 92.4801 309.625 92.4801C305.145 92.4801 302.905 94.5068 302.905 98.5601V143.04C302.905 147.093 305.145 149.12 309.625 149.12C314.105 149.12 316.345 147.093 316.345 143.04V98.5601ZM279.225 97.7601C279.225 89.6534 281.732 83.3601 286.745 78.8801C291.865 74.2934 299.492 72.0001 309.625 72.0001C319.758 72.0001 327.332 74.2934 332.345 78.8801C337.465 83.3601 340.025 89.6534 340.025 97.7601V143.84C340.025 151.947 337.465 158.293 332.345 162.88C327.332 167.36 319.758 169.6 309.625 169.6C299.492 169.6 291.865 167.36 286.745 162.88C281.732 158.293 279.225 151.947 279.225 143.84V97.7601ZM385.176 147.68C388.483 147.68 391.523 146.933 394.296 145.44V166.88C390.67 168.587 385.923 169.44 380.056 169.44C370.99 169.44 364.536 167.307 360.696 163.04C356.856 158.773 354.936 152.587 354.936 144.48V93.9201H346.456V73.6001H356.056L363.416 57.2801H379.096V73.6001H393.336V93.9201H379.096V141.92C379.096 145.76 381.123 147.68 385.176 147.68Z" fill="white"/>
<g clip-path="url(#clip1_9_137)">
<path d="M163.58 56.7695C162.667 64.2051 155.899 69.4927 148.463 68.5797C141.028 67.6667 135.74 60.8989 136.653 53.4634C137.566 46.0278 144.334 40.7402 151.769 41.6532C159.205 42.5661 164.493 49.334 163.58 56.7695ZM151.032 51.6517C149.655 52.0355 146.9 52.8415 142.765 54.0696C142.096 54.2448 141.732 54.4517 141.672 54.6904C141.57 55.0938 142.064 55.3182 142.735 55.6237C142.827 55.6652 142.921 55.7083 143.018 55.7535C143.678 56.0613 144.571 56.4363 145.05 56.5057C145.485 56.5687 145.994 56.4487 146.576 56.1457C150.548 54.1206 152.594 53.1018 152.716 53.0894C152.802 53.0807 152.922 53.071 152.992 53.1507C153.062 53.2303 153.038 53.3619 153.025 53.3964C152.948 53.6068 150.704 55.232 149.542 56.073C149.18 56.3352 148.924 56.5212 148.87 56.5643C148.751 56.661 148.631 56.7515 148.516 56.8385C147.801 57.3757 147.266 57.7785 148.317 58.6729C148.823 59.1027 149.226 59.4563 149.628 59.8091C150.067 60.1944 150.505 60.5786 151.074 61.0601C151.219 61.1827 151.356 61.3085 151.49 61.431C151.999 61.8972 152.456 62.316 153.082 62.335C153.446 62.3461 153.859 62.0534 154.172 61.0677C154.911 58.7381 156.422 53.6796 156.886 51.5756C156.926 51.3913 156.933 51.1498 156.928 51.0428C156.923 50.9358 156.904 50.7819 156.781 50.6547C156.636 50.504 156.391 50.4458 156.279 50.4341C155.771 50.3809 154.961 50.5556 151.032 51.6517Z" fill="white"/>
</g>
<path d="M52.2846 27.7395C55.491 34.7753 52.3867 43.0782 45.3509 46.2846C38.3151 49.491 30.0121 46.3867 26.8057 39.3509C23.5993 32.3151 26.7037 24.0121 33.7395 20.8057C40.7753 17.5993 49.0782 20.7036 52.2846 27.7395ZM38.4821 30.0025C37.4779 31.0826 35.4875 33.2779 32.5111 36.5884C32.0173 37.1031 31.8084 37.4816 31.8841 37.7241C32.0122 38.134 32.5673 38.0654 33.3232 37.972C33.426 37.9593 33.5325 37.9461 33.6422 37.9336C34.389 37.8486 35.3767 37.6973 35.8361 37.4998C36.2527 37.3207 36.6357 36.9407 36.985 36.3599C39.3875 32.4362 40.6392 30.436 40.74 30.3593C40.8111 30.3051 40.9108 30.2324 41.0154 30.2646C41.1201 30.2969 41.1699 30.4256 41.1773 30.4628C41.2227 30.6898 40.1243 33.3301 39.556 34.6965C39.3788 35.1224 39.2531 35.4246 39.2296 35.4912C39.177 35.6404 39.1199 35.785 39.0651 35.9238C38.7263 36.7818 38.4722 37.4251 39.8798 37.6452C40.5563 37.7509 41.1018 37.8447 41.6459 37.9382C42.2402 38.0404 42.833 38.1423 43.5932 38.2592C43.7868 38.289 43.9755 38.3257 44.1593 38.3613C44.8586 38.4971 45.4869 38.619 46.0481 38.2981C46.3743 38.1117 46.58 37.6313 46.3235 36.5953C45.7174 34.1468 44.3192 28.8803 43.5929 26.7785C43.5292 26.5944 43.4052 26.3782 43.343 26.2867C43.2809 26.1953 43.181 26.0702 43.0045 26.0244C42.7954 25.9701 42.5479 26.0514 42.4433 26.1012C41.968 26.328 41.3494 26.9187 38.4821 30.0025Z" fill="white"/>
<g clip-path="url(#clip2_9_137)">
<path d="M343.315 218.956C335.961 216.566 331.937 208.668 334.326 201.315C336.715 193.961 344.614 189.937 351.967 192.326C359.321 194.716 363.345 202.614 360.956 209.967C358.566 217.321 350.668 221.345 343.315 218.956ZM350.971 207.251C350.853 205.781 350.579 202.83 350.149 198.399C350.104 197.687 349.966 197.277 349.736 197.169C349.347 196.987 349.022 197.443 348.581 198.063C348.521 198.147 348.458 198.235 348.393 198.324C347.952 198.932 347.396 199.763 347.231 200.235C347.082 200.663 347.103 201.202 347.295 201.852C348.565 206.274 349.194 208.548 349.183 208.674C349.174 208.763 349.161 208.886 349.066 208.941C348.972 208.997 348.843 208.946 348.811 208.927C348.613 208.807 347.408 206.213 346.785 204.871C346.59 204.453 346.453 204.156 346.419 204.094C346.345 203.954 346.277 203.814 346.212 203.68C345.808 202.851 345.505 202.229 344.392 203.118C343.857 203.545 343.419 203.884 342.983 204.222C342.506 204.591 342.03 204.959 341.431 205.441C341.278 205.563 341.123 205.678 340.973 205.789C340.4 206.213 339.886 206.594 339.743 207.224C339.66 207.591 339.876 208.067 340.813 208.578C343.027 209.785 347.855 212.312 349.895 213.197C350.074 213.274 350.317 213.329 350.427 213.345C350.536 213.361 350.696 213.372 350.849 213.272C351.03 213.155 351.137 212.918 351.171 212.807C351.325 212.303 351.308 211.448 350.971 207.251Z" fill="white"/>
</g>
<g clip-path="url(#clip3_9_137)">
<path d="M181.107 210.958C185.814 217.092 184.657 225.881 178.523 230.588C172.389 235.294 163.6 234.137 158.893 228.003C154.186 221.869 155.343 213.081 161.478 208.374C167.612 203.667 176.4 204.824 181.107 210.958ZM168.167 216.268C167.432 217.546 165.986 220.133 163.831 224.028C163.466 224.641 163.347 225.057 163.476 225.276C163.693 225.646 164.218 225.455 164.934 225.194C165.031 225.158 165.132 225.121 165.236 225.084C165.944 224.834 166.873 224.464 167.276 224.168C167.641 223.9 167.929 223.444 168.139 222.799C169.597 218.436 170.367 216.205 170.448 216.108C170.505 216.039 170.586 215.946 170.695 215.953C170.804 215.961 170.882 216.076 170.897 216.11C170.992 216.321 170.516 219.141 170.27 220.6C170.193 221.055 170.138 221.378 170.13 221.448C170.113 221.605 170.09 221.759 170.068 221.906C169.93 222.818 169.828 223.502 171.249 223.4C171.932 223.351 172.484 223.32 173.035 223.288C173.637 223.254 174.238 223.22 175.005 223.163C175.2 223.149 175.392 223.142 175.579 223.135C176.291 223.11 176.931 223.088 177.406 222.649C177.682 222.394 177.774 221.88 177.291 220.928C176.15 218.678 173.602 213.861 172.422 211.977C172.319 211.812 172.149 211.629 172.068 211.554C171.987 211.479 171.861 211.379 171.679 211.374C171.463 211.369 171.24 211.503 171.15 211.576C170.737 211.903 170.268 212.618 168.167 216.268Z" fill="white"/>
</g>
<g clip-path="url(#clip4_9_137)">
<path d="M293.497 44.308C292.555 51.9824 285.57 57.4398 277.896 56.4975C270.221 55.5552 264.764 48.57 265.706 40.8957C266.648 33.2213 273.634 27.7639 281.308 28.7062C288.982 29.6485 294.44 36.6336 293.497 44.308ZM280.546 39.0258C279.126 39.422 276.282 40.2538 272.014 41.5213C271.324 41.7022 270.948 41.9158 270.886 42.1621C270.781 42.5785 271.29 42.81 271.984 43.1253C272.078 43.1682 272.176 43.2127 272.276 43.2593C272.957 43.5771 273.878 43.9641 274.373 44.0357C274.822 44.1007 275.347 43.9768 275.948 43.6641C280.047 41.574 282.159 40.5225 282.285 40.5097C282.374 40.5007 282.497 40.4907 282.57 40.5729C282.642 40.6551 282.617 40.7909 282.604 40.8265C282.524 41.0437 280.208 42.7211 279.009 43.5891C278.636 43.8597 278.371 44.0517 278.316 44.0962C278.193 44.196 278.069 44.2894 277.95 44.3791C277.212 44.9336 276.66 45.3494 277.745 46.2725C278.266 46.7161 278.683 47.0811 279.098 47.4452C279.551 47.8428 280.003 48.2394 280.59 48.7363C280.74 48.8629 280.882 48.9927 281.02 49.1192C281.545 49.6003 282.017 50.0326 282.663 50.0522C283.039 50.0636 283.465 49.7616 283.788 48.7442C284.55 46.3398 286.11 41.1188 286.589 38.9473C286.631 38.757 286.638 38.5078 286.633 38.3974C286.627 38.287 286.608 38.1281 286.481 37.9968C286.331 37.8413 286.078 37.7812 285.962 37.7691C285.439 37.7142 284.602 37.8945 280.546 39.0258Z" fill="white"/>
</g>
<g clip-path="url(#clip5_9_137)">
<path d="M61.9766 215.919C61.4373 208.206 67.2528 201.516 74.9659 200.977C82.6791 200.437 89.3691 206.253 89.9084 213.966C90.4478 221.679 84.6323 228.369 76.9191 228.908C69.206 229.448 62.516 223.632 61.9766 215.919ZM75.6976 218.633C77.0165 217.973 79.6496 216.614 83.5969 214.555C84.2396 214.246 84.568 213.965 84.5819 213.711C84.6055 213.282 84.0615 213.152 83.3208 212.975C83.22 212.951 83.1156 212.926 83.0085 212.899C82.2793 212.717 81.3011 212.513 80.8017 212.537C80.3487 212.559 79.8569 212.781 79.3262 213.203C75.7018 216.036 73.8289 217.472 73.7076 217.508C73.622 217.534 73.5032 217.567 73.4165 217.5C73.3298 217.434 73.3282 217.295 73.3343 217.258C73.3713 217.03 75.3247 214.941 76.3356 213.86C76.6508 213.523 76.8743 213.284 76.9196 213.23C77.0212 213.109 77.1252 212.993 77.2252 212.883C77.843 212.198 78.3063 211.684 77.0649 210.985C76.4683 210.649 75.9902 210.37 75.5133 210.092C74.9924 209.788 74.4728 209.485 73.8018 209.109C73.6308 209.014 73.4669 208.913 73.3073 208.815C72.6998 208.443 72.154 208.109 71.5159 208.213C71.1451 208.274 70.7842 208.651 70.6616 209.712C70.3719 212.217 69.8372 217.64 69.7814 219.863C69.7765 220.058 69.817 220.304 69.8432 220.411C69.8694 220.519 69.9191 220.671 70.0684 220.776C70.2453 220.9 70.5056 220.91 70.621 220.9C71.1456 220.854 71.9319 220.517 75.6976 218.633Z" fill="white"/>
</g>
<g clip-path="url(#clip6_9_137)">
<path d="M14.4865 110.244C22.2173 110.379 28.375 116.756 28.2401 124.487C28.1051 132.217 21.7287 138.375 13.9979 138.24C6.26706 138.105 0.109392 131.729 0.244333 123.998C0.379274 116.267 6.75573 110.109 14.4865 110.244ZM10.587 123.677C11.1295 125.048 12.2541 127.789 13.9608 131.901C14.2127 132.568 14.4644 132.92 14.7159 132.956C15.141 133.017 15.3181 132.486 15.5592 131.764C15.592 131.666 15.6259 131.564 15.6619 131.459C15.9067 130.749 16.1953 129.792 16.2148 129.292C16.2325 128.839 16.0544 128.33 15.6806 127.765C13.1734 123.907 11.9069 121.916 11.8811 121.792C11.8628 121.705 11.84 121.583 11.9142 121.503C11.9884 121.422 12.126 121.433 12.1628 121.442C12.3872 121.499 14.2974 123.627 15.286 124.728C15.5942 125.071 15.8128 125.315 15.8628 125.365C15.9749 125.477 16.0807 125.59 16.1825 125.7C16.811 126.375 17.2823 126.881 18.0869 125.705C18.4735 125.14 18.793 124.688 19.1117 124.237C19.4598 123.745 19.807 123.254 20.2398 122.618C20.35 122.456 20.4643 122.301 20.5756 122.151C20.9992 121.578 21.3798 121.064 21.3318 120.419C21.3039 120.044 20.9589 119.652 19.9134 119.437C17.4424 118.93 12.087 117.925 9.87734 117.676C9.68374 117.654 9.43516 117.673 9.32588 117.689C9.21661 117.706 9.06071 117.742 8.94333 117.882C8.80432 118.047 8.7711 118.306 8.77112 118.422C8.7712 118.948 9.03797 119.761 10.587 123.677Z" fill="white"/>
</g>
<g clip-path="url(#clip7_9_137)">
<path d="M416.803 120.683C416.331 128.401 409.692 134.274 401.974 133.802C394.256 133.33 388.383 126.691 388.855 118.974C389.327 111.256 395.966 105.383 403.683 105.855C411.401 106.327 417.275 112.966 416.803 120.683ZM403.553 116.202C402.159 116.684 399.371 117.688 395.189 119.213C394.512 119.436 394.149 119.672 394.102 119.922C394.023 120.344 394.545 120.544 395.257 120.816C395.353 120.853 395.454 120.892 395.556 120.932C396.256 121.208 397.199 121.538 397.697 121.579C398.149 121.616 398.666 121.461 399.247 121.112C403.21 118.775 405.254 117.597 405.379 117.577C405.468 117.562 405.59 117.545 405.667 117.622C405.744 117.7 405.728 117.837 405.717 117.873C405.65 118.095 403.441 119.911 402.298 120.85C401.941 121.143 401.688 121.351 401.636 121.399C401.52 121.506 401.402 121.607 401.288 121.703C400.586 122.302 400.06 122.751 401.199 123.606C401.747 124.017 402.185 124.356 402.621 124.694C403.098 125.063 403.573 125.431 404.19 125.891C404.347 126.009 404.496 126.129 404.642 126.247C405.195 126.695 405.693 127.098 406.339 127.078C406.715 127.067 407.122 126.739 407.382 125.704C407.996 123.257 409.234 117.951 409.579 115.754C409.61 115.562 409.602 115.313 409.59 115.203C409.578 115.093 409.548 114.936 409.414 114.812C409.255 114.666 408.998 114.622 408.882 114.617C408.356 114.594 407.533 114.825 403.553 116.202Z" fill="white"/>
</g>
<g clip-path="url(#clip8_9_137)">
<path d="M358.524 34.9059C357.85 27.2033 363.548 20.4128 371.25 19.739C378.953 19.0651 385.743 24.7629 386.417 32.4655C387.091 40.1681 381.393 46.9585 373.69 47.6324C365.988 48.3063 359.197 42.6084 358.524 34.9059ZM372.29 37.38C373.597 36.6971 376.206 35.2921 380.117 33.165C380.754 32.8447 381.077 32.5576 381.087 32.3037C381.103 31.8746 380.557 31.754 379.813 31.5897C379.712 31.5674 379.607 31.5442 379.5 31.5194C378.767 31.3502 377.786 31.1632 377.287 31.196C376.834 31.2258 376.346 31.4561 375.823 31.887C372.249 34.7836 370.401 36.2513 370.281 36.29C370.195 36.3173 370.077 36.3526 369.989 36.2873C369.901 36.2219 369.897 36.084 369.903 36.0464C369.936 35.8173 371.853 33.6951 372.844 32.5968C373.154 32.2544 373.373 32.0116 373.417 31.9566C373.517 31.8335 373.619 31.7163 373.717 31.6037C374.323 30.9081 374.777 30.3864 373.523 29.7091C372.921 29.3837 372.438 29.1132 371.956 28.8433C371.43 28.5486 370.906 28.2547 370.228 27.8907C370.055 27.798 369.89 27.7005 369.729 27.6055C369.115 27.2441 368.563 26.9195 367.927 27.0346C367.557 27.1015 367.203 27.4856 367.099 28.5478C366.853 31.0582 366.413 36.4894 366.396 38.713C366.395 38.9078 366.439 39.1531 366.467 39.26C366.495 39.3669 366.548 39.5182 366.699 39.6203C366.878 39.7413 367.138 39.7473 367.254 39.7352C367.777 39.6801 368.558 39.3298 372.29 37.38Z" fill="white"/>
</g>
<g clip-path="url(#clip9_9_137)">
<path d="M256.727 190.674C260.995 184.227 269.681 182.46 276.129 186.727C282.576 190.995 284.344 199.681 280.076 206.129C275.808 212.576 267.122 214.343 260.674 210.076C254.227 205.808 252.46 197.122 256.727 190.674ZM265.961 201.18C267.409 201.46 270.325 201.984 274.71 202.754C275.408 202.9 275.84 202.877 276.005 202.684C276.285 202.358 275.933 201.924 275.453 201.332C275.388 201.252 275.32 201.168 275.251 201.082C274.783 200.494 274.132 199.736 273.721 199.451C273.348 199.193 272.823 199.07 272.145 199.081C267.545 199.123 265.185 199.121 265.067 199.076C264.983 199.045 264.869 198.999 264.84 198.893C264.812 198.787 264.895 198.677 264.923 198.651C265.091 198.492 267.912 198.024 269.372 197.782C269.827 197.707 270.15 197.653 270.219 197.638C270.374 197.603 270.526 197.575 270.673 197.548C271.58 197.381 272.261 197.255 271.701 195.945C271.432 195.315 271.223 194.803 271.014 194.292C270.786 193.734 270.558 193.177 270.254 192.471C270.177 192.291 270.108 192.111 270.041 191.936C269.785 191.271 269.556 190.674 268.986 190.368C268.655 190.19 268.139 190.27 267.396 191.037C265.641 192.848 261.916 196.825 260.518 198.555C260.396 198.706 260.278 198.926 260.234 199.027C260.189 199.128 260.136 199.279 260.19 199.453C260.255 199.659 260.455 199.826 260.553 199.888C260.997 200.171 261.826 200.383 265.961 201.18Z" fill="white"/>
</g>
<defs>
<clipPath id="clip0_9_137">
<rect width="27.1288" height="27.1288" fill="white" transform="translate(127.306 50.0001) rotate(7)"/>
</clipPath>
<clipPath id="clip1_9_137">
<rect width="27.1288" height="27.1288" fill="white" transform="translate(138.306 40.0001) rotate(7)"/>
</clipPath>
<clipPath id="clip2_9_137">
<rect width="28" height="28" fill="white" transform="translate(365.282 196.652) rotate(108)"/>
</clipPath>
<clipPath id="clip3_9_137">
<rect width="28" height="28" fill="white" transform="translate(150.371 216.896) rotate(-37.5)"/>
</clipPath>
<clipPath id="clip4_9_137">
<rect width="28" height="28" fill="white" transform="translate(267.412 27) rotate(7)"/>
</clipPath>
<clipPath id="clip5_9_137">
<rect width="28" height="28" fill="white" transform="translate(90.885 227.932) rotate(176)"/>
</clipPath>
<clipPath id="clip6_9_137">
<rect width="28" height="28" fill="white" transform="translate(0 137.996) rotate(-89)"/>
</clipPath>
<clipPath id="clip7_9_137">
<rect width="28" height="28" fill="white" transform="translate(389.709 105) rotate(3.5)"/>
</clipPath>
<clipPath id="clip8_9_137">
<rect width="28" height="28" fill="white" transform="translate(387.637 46.4122) rotate(175)"/>
</clipPath>
<clipPath id="clip9_9_137">
<rect width="28" height="28" fill="white" transform="translate(272.349 217.803) rotate(-146.5)"/>
</clipPath>
</defs>
</svg>
