<svg width="998" height="1024" viewBox="0 0 998 1024" fill="none" xmlns="http://www.w3.org/2000/svg">
<g filter="url(#filter0_f_2_67)">
<path fill-rule="evenodd" clip-rule="evenodd" d="M162.829 400.756C184.737 337.019 221.084 279.166 270.955 229.757L268.323 236.663C221.185 284.718 186.705 340.521 165.666 401.731C146.82 456.565 154.385 497.881 177.092 528.239C199.865 558.686 238.055 578.364 280.926 589.428C323.772 600.485 371.104 602.886 411.906 598.934C432.304 596.958 451.039 593.398 466.742 588.555C467.276 588.39 467.806 588.224 468.332 588.057L471.053 590.329C469.926 590.701 468.784 591.065 467.626 591.422C451.69 596.337 432.75 599.929 412.195 601.92C371.092 605.901 323.404 603.488 280.177 592.333C236.975 581.184 198.038 561.251 174.69 530.036C151.276 498.733 143.726 456.337 162.829 400.756ZM530.939 550.449C559.901 525.14 593.874 496.102 631.117 473.656C636.515 470.403 641.977 467.291 647.499 464.351V460.957C641.442 464.144 635.463 467.534 629.569 471.086C591.968 493.748 557.662 523.105 528.607 548.501L530.939 550.449ZM757.499 436.989C731.198 435.032 705.385 439.987 680.499 449.32V446.12C705.318 436.944 731.135 432.055 757.499 433.979V436.989ZM803.499 447.817C855.179 468.745 908.56 519.898 943.969 578.326C963.212 610.079 977.087 643.887 982.498 676.022C987.909 708.158 984.843 738.522 970.34 763.523C939.384 816.888 890.824 850.688 819.693 866.612C748.491 882.552 654.712 880.566 533.479 862.29C412.044 843.983 342.901 863.143 311.13 890.605C295.221 904.357 288.633 920.258 289.78 934.534C290.929 948.818 299.806 961.199 314.239 967.86L315.496 965.136C301.958 958.889 293.825 947.404 292.771 934.293C291.716 921.174 297.736 906.149 313.092 892.875C343.853 866.286 411.874 846.991 533.032 865.257C654.394 883.552 748.607 885.6 820.348 869.54C892.161 853.463 941.495 819.229 972.935 765.028C987.89 739.248 990.945 708.121 985.457 675.524C979.968 642.927 965.922 608.762 946.535 576.771C910.677 517.602 856.343 465.552 803.499 444.585V447.817ZM320.601 190.549L317.305 189.293C342.101 170.196 369.357 152.801 399 137.314V140.699C370.627 155.619 344.473 172.298 320.601 190.549ZM468 109.62C485.85 102.801 504.387 96.5837 523.6 91H523V88.0553C504.009 93.5679 485.672 99.698 468 106.415V109.62ZM727.508 57.996C667.77 61.0836 612.206 68.9814 561 81.1423V78.0632C612.207 65.9482 667.722 58.0821 727.353 55L727.508 57.996Z" fill="#F4AEFF"/>
</g>
<path fill-rule="evenodd" clip-rule="evenodd" d="M262.291 159.474C181.513 217.926 125.094 293.662 95.3299 380.258C76.2261 435.839 83.7764 478.235 107.19 509.538C130.538 540.753 169.475 560.686 212.677 571.835C255.905 582.99 303.592 585.403 344.696 581.422C365.251 579.431 384.191 575.839 400.126 570.924C413.424 566.822 424.703 561.778 433.085 555.922L431.163 553.605C423.162 559.15 412.283 564.035 399.242 568.057C383.539 572.9 364.805 576.46 344.407 578.436C303.604 582.388 256.272 579.987 213.427 568.93C170.555 557.866 132.366 538.188 109.592 507.741C86.8851 477.383 79.3202 436.067 98.167 381.233C127.682 295.361 183.652 220.132 263.91 162.008L262.291 159.474ZM469.863 520.377L471.779 522.688C498.849 499.215 529.892 473.484 563.618 453.158C583.449 441.206 604.157 431.156 625.478 424.545L624.771 421.624C603.082 428.329 582.084 438.526 562.069 450.588C528.18 471.013 496.967 496.877 469.863 520.377ZM722.433 422.519C706.438 417.698 690.555 415.745 674.879 416.111L674.158 413.127C690.329 412.684 706.746 414.658 723.298 419.647C729.799 421.606 736.346 424.071 742.904 426.998L741.255 429.548C734.954 426.755 728.668 424.398 722.433 422.519ZM796.735 464.778C826.991 489.728 855.026 522.444 876.47 557.828C895.713 589.581 909.588 623.389 914.999 655.524C920.41 687.66 917.343 718.024 902.841 743.025C871.885 796.39 823.325 830.19 752.194 846.114C680.992 862.054 587.212 860.068 465.98 841.792C344.545 823.485 275.401 842.645 243.631 870.107C227.721 883.859 221.134 899.76 222.281 914.036C223.429 928.32 232.307 940.701 246.74 947.362L247.997 944.638C234.459 938.391 226.325 926.906 225.271 913.795C224.217 900.676 230.236 885.651 245.592 872.377C276.353 845.788 344.374 826.493 465.533 844.759C586.894 863.054 681.108 865.102 752.849 849.042C824.661 832.965 873.995 798.731 905.436 744.53C920.39 718.75 923.446 687.623 917.957 655.026C912.468 622.429 898.422 588.264 879.035 556.273C857.409 520.587 829.062 487.491 798.375 462.242L796.735 464.778ZM329.618 117.804L331.238 120.339C385.372 91.837 447.596 69.7382 517.477 55.3291L517.042 52.3592C446.745 66.8411 384.117 89.0841 329.618 117.804ZM660.008 37.498C627.687 39.1686 596.587 42.2472 566.739 46.6474L566.304 43.6809C596.251 39.2654 627.444 36.1771 659.854 34.502L660.008 37.498Z" fill="#B14FFF"/>
<g filter="url(#filter1_f_2_67)">
<path fill-rule="evenodd" clip-rule="evenodd" d="M21.3289 356.638C87.2097 164.752 283.679 26.1373 585.852 10.502L586.008 13.498C284.656 29.0908 89.5335 167.222 24.1664 357.612C5.30672 412.543 12.0991 452.49 34.2109 480.922C56.3966 509.449 94.242 526.701 138.134 535.631C181.992 544.554 231.662 545.121 277.2 540.472C322.749 535.822 364.042 525.967 391.155 514.125C395.358 512.29 399.981 510.471 404.991 508.678L406.408 511.357C401.307 513.174 396.611 515.016 392.356 516.875C364.865 528.882 323.242 538.788 277.504 543.457C231.755 548.127 181.768 547.57 137.536 538.571C93.3401 529.579 54.6663 512.111 31.8427 482.764C8.94517 453.322 2.23796 412.242 21.3289 356.638ZM448.577 499.113L447.13 496.377C500.269 483.489 572.847 473.632 647.76 471.452L648.724 474.425C573.952 476.541 501.558 486.336 448.577 499.113ZM679.074 474.001C742.207 474.219 794.163 510.392 823.122 559.166C852.175 608.1 857.972 669.527 828.839 719.804C797.883 773.227 749.323 807.065 678.192 823.006C606.991 838.964 513.212 836.976 391.98 818.679C270.544 800.352 201.4 819.534 169.629 847.026C153.72 860.793 147.133 876.71 148.28 891C149.428 905.299 158.305 917.694 172.738 924.362L173.996 921.638C160.459 915.384 152.324 903.887 151.271 890.76C150.216 877.625 156.236 862.583 171.592 849.294C202.353 822.676 270.374 803.36 391.532 821.646C512.893 839.962 607.107 842.012 678.848 825.934C750.661 809.839 799.995 775.567 831.435 721.308C861.216 669.911 855.195 607.31 825.701 557.635C796.2 507.947 743.108 471 678.5 471C678.367 471 678.234 471 678.101 471L679.074 474.001Z" fill="#6833FF"/>
</g>
<path d="M549.085 296.294C549.081 296.295 549.12 296.615 548.528 297.425C547.934 298.237 546.912 299.248 545.429 300.431C542.478 302.783 537.959 305.61 532.172 308.658C520.616 314.745 504.204 321.614 485.675 327.267C467.136 332.924 449.316 336.648 436.152 338.128C429.555 338.87 424.207 339.039 420.546 338.635C418.7 338.432 417.409 338.096 416.621 337.698C415.859 337.313 415.856 337.041 415.856 336.989C415.856 336.988 415.856 336.987 415.856 336.986L414.356 337.011L415.856 336.986C415.851 336.695 416.005 336.16 416.73 335.348C417.439 334.553 418.557 333.65 420.115 332.652C423.224 330.659 427.823 328.452 433.663 326.067C445.325 321.306 461.665 315.949 480.27 310.272C498.861 304.599 516.045 299.958 528.776 297.441C535.154 296.18 540.342 295.467 544.007 295.406C545.85 295.375 547.203 295.512 548.097 295.771C548.539 295.899 548.802 296.039 548.947 296.148C549.049 296.226 549.077 296.276 549.085 296.294Z" fill="#6EB1FF" stroke="#8934B1" stroke-width="3"/>
<path d="M657.454 426.041C661.514 464.869 655.726 509.063 639.339 544.502C622.956 579.934 596.103 606.399 558.086 610.374C520.064 614.35 483.167 592.047 455.668 558.763C428.183 525.498 410.368 481.581 410.368 442.985C410.368 404.773 420.775 377.862 440.556 359.473C460.386 341.039 489.861 330.955 528.446 326.92C566.878 322.901 597.358 331.121 619.081 348.521C640.805 365.921 653.963 392.655 657.454 426.041Z" fill="#6FB1FF" stroke="#FB31FF" stroke-width="3"/>
<path d="M581.314 438.908C588.011 461.284 584.627 487.427 573.817 508.575C563.005 529.727 544.998 545.482 522.748 547.809C500.592 550.125 478.826 536.933 462.414 516.968C446.029 497.036 435.471 470.911 435.471 448.499C435.471 426.683 441.639 410.92 453.176 399.983C464.778 388.985 482.152 382.538 505.214 380.126C528.072 377.736 543.902 382.404 555.544 392.392C567.294 402.473 575.138 418.271 581.314 438.908Z" fill="#4A85CB" stroke="#FB31FF" stroke-width="5"/>
<path d="M298.746 457.534C296.717 453.59 298.063 448.748 301.836 446.416L391.812 390.809C398.012 386.977 405.844 392.216 404.669 399.409L401.108 421.222C400.631 424.145 398.667 426.609 395.924 427.725L310.096 462.66C306.018 464.32 301.347 462.591 299.333 458.675L298.746 457.534Z" fill="#6FB1FF" stroke="#8934B1" stroke-width="3"/>
<mask id="path-8-inside-1_2_67" fill="white">
<path fill-rule="evenodd" clip-rule="evenodd" d="M274.999 510.489C276.241 509.793 277.459 509.021 278.647 508.172C294.731 496.675 299.233 475.411 288.702 460.678C278.171 445.944 256.595 443.32 240.511 454.816C239.323 455.666 238.198 456.568 237.137 457.518L242.426 464.917C255.057 459.343 268.67 461.285 275.231 470.464C281.792 479.643 279.223 493.153 269.86 503.299L274.999 510.489Z"/>
</mask>
<path fill-rule="evenodd" clip-rule="evenodd" d="M274.999 510.489C276.241 509.793 277.459 509.021 278.647 508.172C294.731 496.675 299.233 475.411 288.702 460.678C278.171 445.944 256.595 443.32 240.511 454.816C239.323 455.666 238.198 456.568 237.137 457.518L242.426 464.917C255.057 459.343 268.67 461.285 275.231 470.464C281.792 479.643 279.223 493.153 269.86 503.299L274.999 510.489Z" fill="#6FB1FF"/>
<path d="M274.999 510.489L272.558 512.234L274.121 514.42L276.466 513.106L274.999 510.489ZM237.137 457.518L235.136 455.282L233.133 457.075L234.696 459.262L237.137 457.518ZM242.426 464.917L239.986 466.662L241.405 468.647L243.638 467.662L242.426 464.917ZM269.86 503.299L267.655 501.264L266 503.058L267.419 505.043L269.86 503.299ZM276.903 505.731C275.804 506.517 274.678 507.23 273.532 507.872L276.466 513.106C277.803 512.357 279.114 511.525 280.391 510.612L276.903 505.731ZM286.262 462.422C295.688 475.611 291.845 495.051 276.903 505.731L280.391 510.612C297.618 498.3 302.778 475.212 291.143 458.933L286.262 462.422ZM242.255 457.257C257.198 446.577 276.835 449.234 286.262 462.422L291.143 458.933C279.508 442.654 255.993 440.063 238.766 452.376L242.255 457.257ZM239.138 459.753C240.117 458.876 241.156 458.042 242.255 457.257L238.766 452.376C237.489 453.289 236.278 454.26 235.136 455.282L239.138 459.753ZM234.696 459.262L239.986 466.662L244.867 463.173L239.578 455.773L234.696 459.262ZM277.672 468.72C269.985 457.964 254.608 456.262 241.215 462.173L243.638 467.662C255.507 462.423 267.356 464.606 272.791 472.209L277.672 468.72ZM272.064 505.333C281.993 494.575 285.359 479.475 277.672 468.72L272.791 472.209C278.225 479.812 276.454 491.73 267.655 501.264L272.064 505.333ZM267.419 505.043L272.558 512.234L277.44 508.745L272.3 501.554L267.419 505.043Z" fill="#8934B1" mask="url(#path-8-inside-1_2_67)"/>
<path d="M757.435 404.009C757.75 401.119 756.24 398.371 753.602 397.033L659.01 349.085C651.349 345.201 642.972 353.58 647.308 360.789L661.085 383.69C662.165 385.485 663.917 386.806 665.994 387.389L747.727 410.355C752.246 411.625 756.94 408.556 757.435 404.009Z" fill="#6FB1FF" stroke="#8934B1" stroke-width="3"/>
<mask id="path-11-inside-2_2_67" fill="white">
<path fill-rule="evenodd" clip-rule="evenodd" d="M781.86 452.525C780.665 451.989 779.487 451.385 778.331 450.712C762.684 441.592 757.122 423.186 765.908 409.6C774.694 396.014 794.5 392.393 810.147 401.512C811.303 402.186 812.403 402.91 813.447 403.679L809.035 410.503C796.974 406.375 784.496 408.912 779.023 417.376C773.549 425.84 776.813 437.552 786.148 445.895L781.86 452.525Z"/>
</mask>
<path fill-rule="evenodd" clip-rule="evenodd" d="M781.86 452.525C780.665 451.989 779.487 451.385 778.331 450.712C762.684 441.592 757.122 423.186 765.908 409.6C774.694 396.014 794.5 392.393 810.147 401.512C811.303 402.186 812.403 402.91 813.447 403.679L809.035 410.503C796.974 406.375 784.496 408.912 779.023 417.376C773.549 425.84 776.813 437.552 786.148 445.895L781.86 452.525Z" fill="#6FB1FF"/>
<path d="M781.86 452.525L784.452 454.036L782.989 456.299L780.517 455.191L781.86 452.525ZM813.447 403.679L815.344 401.336L817.503 402.927L816.039 405.19L813.447 403.679ZM809.035 410.503L811.627 412.013L810.295 414.073L807.953 413.272L809.035 410.503ZM786.148 445.895L788.26 443.726L790.072 445.346L788.74 447.405L786.148 445.895ZM779.96 448.192C781.023 448.812 782.106 449.367 783.204 449.859L780.517 455.191C779.224 454.612 777.95 453.958 776.702 453.231L779.96 448.192ZM768.5 411.111C760.782 423.046 765.462 439.743 779.96 448.192L776.702 453.231C759.906 443.442 753.463 423.326 763.316 408.089L768.5 411.111ZM808.518 404.031C794.02 395.581 776.218 399.175 768.5 411.111L763.316 408.089C773.169 392.852 794.98 389.204 811.776 398.993L808.518 404.031ZM811.551 406.023C810.593 405.317 809.581 404.651 808.518 404.031L811.776 398.993C813.024 399.72 814.214 400.503 815.344 401.336L811.551 406.023ZM816.039 405.19L811.627 412.013L806.443 408.992L810.856 402.169L816.039 405.19ZM776.431 415.866C782.984 405.732 797.313 403.352 810.117 407.734L807.953 413.272C796.636 409.399 786.008 412.093 781.615 418.887L776.431 415.866ZM784.037 448.064C774.126 439.207 769.877 426 776.431 415.866L781.615 418.887C777.221 425.681 779.5 435.897 788.26 443.726L784.037 448.064ZM788.74 447.405L784.452 454.036L779.269 451.015L783.556 444.384L788.74 447.405Z" fill="#8934B1" mask="url(#path-11-inside-2_2_67)"/>
<path d="M573.155 662.888C548.025 663.655 534.735 728.642 535.129 764.194C535.291 778.713 532.782 790.416 552.608 750.772C577.391 701.218 562.963 801.39 572.943 802.326C589.06 803.837 572.548 740.928 579.529 732.099C586.509 723.27 581.806 767.456 589.744 778.241C597.682 789.027 594.654 731.844 597.81 739.949C600.965 748.055 621.264 794.027 628.575 793.597C635.887 793.167 606.92 726.3 609.832 731.036C612.161 734.824 644.092 759.351 664.052 761.223C661.032 739.742 604.567 661.929 573.155 662.888Z" fill="#8934B1" stroke="#FB31FF" stroke-width="3"/>
<g filter="url(#filter2_f_2_67)">
<rect x="771.597" y="224.129" width="70" height="70" rx="35" transform="rotate(-142.584 771.597 224.129)" fill="url(#paint0_linear_2_67)"/>
</g>
<g filter="url(#filter3_f_2_67)">
<rect x="769.597" y="210.129" width="50" height="50" rx="25" transform="rotate(-142.584 769.597 210.129)" fill="url(#paint1_linear_2_67)"/>
</g>
<g filter="url(#filter4_f_2_67)">
<rect x="673.597" y="1017.13" width="70" height="70" rx="35" transform="rotate(-142.584 673.597 1017.13)" fill="url(#paint2_linear_2_67)"/>
</g>
<g filter="url(#filter5_f_2_67)">
<rect x="671.597" y="1003.13" width="50" height="50" rx="25" transform="rotate(-142.584 671.597 1003.13)" fill="url(#paint3_linear_2_67)"/>
</g>
<g filter="url(#filter6_f_2_67)">
<rect x="227.597" y="723.129" width="70" height="70" rx="35" transform="rotate(-142.584 227.597 723.129)" fill="url(#paint4_linear_2_67)"/>
</g>
<path d="M478.046 127.368C478.275 128.273 478.121 129.101 477.543 129.968C476.929 130.888 475.827 131.855 474.16 132.848C470.825 134.835 465.694 136.659 459.277 138.447C452.889 140.227 445.363 141.936 437.307 143.737C436.588 143.897 435.866 144.058 435.14 144.22C427.737 145.873 419.953 147.61 412.302 149.546C398.318 153.083 386.145 158.338 376.589 162.462C374.6 163.321 372.725 164.13 370.97 164.865C365.803 167.029 361.835 168.478 359.031 168.78C357.646 168.929 356.747 168.771 356.173 168.459C355.662 168.181 355.218 167.676 354.954 166.632C354.417 164.507 355.193 161.124 357.607 156.851C359.975 152.662 363.755 147.91 368.692 143.193C378.565 133.758 392.904 124.619 409.368 120.454C425.944 116.261 442.692 115.561 455.592 117.239C462.048 118.078 467.47 119.504 471.404 121.339C475.413 123.208 477.531 125.332 478.046 127.368Z" fill="#6FB1FF" stroke="#FB31FF" stroke-width="3"/>
<rect x="533.354" y="56.649" width="16" height="83" rx="8" transform="rotate(6.02022 533.354 56.649)" fill="#6FB1FF" stroke="#8934B1" stroke-width="3"/>
<rect x="287.053" y="136.147" width="16" height="83" rx="8" transform="rotate(-30.3911 287.053 136.147)" fill="#6FB1FF" stroke="#8934B1" stroke-width="3"/>
<path d="M616.478 162.077C623.377 187.86 610.687 216.603 583.874 242.309C557.104 267.973 516.511 290.326 468.425 303.194C420.331 316.064 379.845 315.752 349.699 305.733C319.641 295.743 299.878 276.125 292.891 250.207C291.218 225.894 298.855 202.857 318.8 182.662C338.831 162.381 371.344 144.904 419.488 132.02C467.673 119.126 513.619 113.674 549.215 118.013C584.871 122.359 609.614 136.427 616.478 162.077Z" fill="#6FB1FF" stroke="#FB31FF" stroke-width="3"/>
<path d="M557.971 178.208C562.656 195.899 553.27 215.9 533.483 234.016C513.755 252.076 483.988 267.945 448.846 277.252C413.695 286.56 384.263 286.607 362.486 279.843C340.8 273.106 326.761 259.651 321.983 241.825C321.044 225.025 326.795 209.023 341.452 194.869C356.202 180.627 380.018 168.217 415.215 158.896C450.45 149.565 483.949 145.453 509.786 148.234C535.713 151.024 553.321 160.652 557.971 178.208Z" fill="#4A85CB" stroke="#FB31FF" stroke-width="3"/>
<path fill-rule="evenodd" clip-rule="evenodd" d="M400.015 263.069C408.826 272.784 422.21 276.873 434.311 272.346C447.133 267.549 454.692 254.511 454.07 240.485L449.603 242.352C445.187 250.002 437.678 256.506 428.062 260.103C419.583 263.276 410.857 263.667 403.185 261.745L400.015 263.069Z" fill="#203E62"/>
<path d="M437.958 187.437C442.842 181 456.637 177.143 466.85 182.337C480.418 189.237 473.5 214.5 473.5 214.5L441.5 225C441.5 225 433.073 193.875 437.958 187.437Z" fill="#203E62"/>
<path d="M374.047 211.13C367.513 208.193 355.335 211.54 350.75 220.966C344.659 233.489 367.5 253 367.5 253L395.5 240C395.5 240 380.58 214.067 374.047 211.13Z" fill="#203E62"/>
<circle cx="448.396" cy="198.396" r="7" transform="rotate(-3.33619 448.396 198.396)" fill="#7DEEFE"/>
<circle cx="363.302" cy="228.747" r="7" transform="rotate(-3.33619 363.302 228.747)" fill="#7DEEFE"/>
<mask id="path-29-inside-3_2_67" fill="white">
<path fill-rule="evenodd" clip-rule="evenodd" d="M497.613 612.28C512.212 639.298 540.272 656.062 570.181 652.501C601.868 648.729 626.182 623.267 632.511 591L621.363 592.759C607.141 607.71 586.545 618.328 562.779 621.158C541.823 623.653 521.84 619.681 505.523 611.032L497.613 612.28Z"/>
</mask>
<path fill-rule="evenodd" clip-rule="evenodd" d="M497.613 612.28C512.212 639.298 540.272 656.062 570.181 652.501C601.868 648.729 626.182 623.267 632.511 591L621.363 592.759C607.141 607.71 586.545 618.328 562.779 621.158C541.823 623.653 521.84 619.681 505.523 611.032L497.613 612.28Z" fill="#8934B1"/>
<path d="M497.613 612.28L497.145 609.317L492.958 609.977L494.974 613.706L497.613 612.28ZM632.511 591L635.455 591.577L636.281 587.368L632.044 588.037L632.511 591ZM621.363 592.759L620.895 589.795L619.89 589.954L619.189 590.691L621.363 592.759ZM505.523 611.032L506.928 608.382L506.044 607.913L505.056 608.069L505.523 611.032ZM494.974 613.706C510.071 641.646 539.232 659.207 570.535 655.48L569.826 649.522C541.311 652.917 514.353 636.95 500.252 610.854L494.974 613.706ZM570.535 655.48C603.704 651.532 628.914 624.925 635.455 591.577L629.568 590.423C623.451 621.609 600.033 645.926 569.826 649.522L570.535 655.48ZM632.044 588.037L620.895 589.795L621.83 595.722L632.979 593.963L632.044 588.037ZM619.189 590.691C605.468 605.116 585.524 615.429 562.424 618.179L563.134 624.137C587.565 621.228 608.814 610.304 623.536 594.826L619.189 590.691ZM562.424 618.179C542.058 620.603 522.691 616.737 506.928 608.382L504.118 613.683C520.989 622.626 541.587 626.702 563.134 624.137L562.424 618.179ZM505.056 608.069L497.145 609.317L498.08 615.244L505.991 613.996L505.056 608.069Z" fill="#FB31FF" mask="url(#path-29-inside-3_2_67)"/>
<path fill-rule="evenodd" clip-rule="evenodd" d="M538.61 648.721C521.511 642.396 506.861 629.395 497.613 612.28L505.523 611.032C521.84 619.681 541.823 623.653 562.779 621.158C586.545 618.328 607.141 607.71 621.363 592.759L632.511 591C628.231 612.822 615.725 631.531 598.276 642.524C589.944 639.695 579.082 638.599 567.419 639.88C556.133 641.12 546.063 644.371 538.61 648.721Z" fill="#6FB1FF"/>
<mask id="path-32-inside-4_2_67" fill="white">
<path fill-rule="evenodd" clip-rule="evenodd" d="M538.61 648.721C521.511 642.396 506.861 629.395 497.613 612.28L505.523 611.032C521.84 619.681 541.823 623.653 562.779 621.158C586.545 618.328 607.141 607.71 621.363 592.759L632.511 591C628.231 612.822 615.725 631.531 598.276 642.524C589.944 639.695 579.082 638.599 567.419 639.88C556.133 641.12 546.063 644.371 538.61 648.721Z"/>
</mask>
<path fill-rule="evenodd" clip-rule="evenodd" d="M538.61 648.721C521.511 642.396 506.861 629.395 497.613 612.28L505.523 611.032C521.84 619.681 541.823 623.653 562.779 621.158C586.545 618.328 607.141 607.71 621.363 592.759L632.511 591C628.231 612.822 615.725 631.531 598.276 642.524C589.944 639.695 579.082 638.599 567.419 639.88C556.133 641.12 546.063 644.371 538.61 648.721Z" fill="#6FB1FF"/>
<path d="M497.613 612.28L497.145 609.317L492.958 609.977L494.974 613.706L497.613 612.28ZM538.61 648.721L537.57 651.535L538.899 652.027L540.123 651.312L538.61 648.721ZM505.523 611.032L506.928 608.382L506.044 607.913L505.056 608.069L505.523 611.032ZM562.779 621.158L563.134 624.137L562.779 621.158ZM621.363 592.759L620.895 589.795L619.89 589.954L619.189 590.691L621.363 592.759ZM632.511 591L635.455 591.577L636.281 587.368L632.044 588.037L632.511 591ZM598.276 642.524L597.311 645.365L598.665 645.825L599.875 645.063L598.276 642.524ZM567.419 639.88L567.746 642.862L567.419 639.88ZM494.974 613.706C504.544 631.419 519.741 644.939 537.57 651.535L539.651 645.907C523.281 639.852 509.178 627.372 500.252 610.854L494.974 613.706ZM505.056 608.069L497.145 609.317L498.08 615.244L505.991 613.996L505.056 608.069ZM562.424 618.179C542.058 620.603 522.691 616.737 506.928 608.382L504.118 613.683C520.989 622.626 541.587 626.702 563.134 624.137L562.424 618.179ZM619.189 590.691C605.468 605.116 585.524 615.429 562.424 618.179L563.134 624.137C587.565 621.228 608.814 610.304 623.536 594.826L619.189 590.691ZM632.044 588.037L620.895 589.795L621.83 595.722L632.979 593.963L632.044 588.037ZM599.875 645.063C618.074 633.597 631.028 614.15 635.455 591.577L629.568 590.423C625.435 611.494 613.376 629.465 596.677 639.986L599.875 645.063ZM567.746 642.862C579.057 641.62 589.467 642.701 597.311 645.365L599.24 639.684C590.421 636.689 579.107 635.578 567.091 636.898L567.746 642.862ZM540.123 651.312C547.153 647.208 556.805 644.065 567.746 642.862L567.091 636.898C555.461 638.176 544.972 641.533 537.098 646.13L540.123 651.312Z" fill="#FB31FF" mask="url(#path-32-inside-4_2_67)"/>
<g filter="url(#filter7_f_2_67)">
<path fill-rule="evenodd" clip-rule="evenodd" d="M419 442.5C419 406.112 433.224 369.013 467.331 349.943L470.686 376.409C434.85 401.918 429.745 420.934 431.973 449.658C432.43 442.683 433.936 436.573 436.452 431.269C433.64 442.751 432.752 456.103 434.295 470.208C437.884 503.012 453.518 529.788 471.876 537.684C478.784 545.937 486.297 553.934 494.155 561.559L497.987 591.785C448.876 558.368 419 484.472 419 442.5Z" fill="#B297FF"/>
</g>
<g filter="url(#filter8_f_2_67)">
<path fill-rule="evenodd" clip-rule="evenodd" d="M423.347 138.403C330.566 164.089 293.577 198.303 297 247C305.125 277.361 327.795 295.997 363.765 301.564C360.103 296.787 356.96 291.69 354.392 286.289C331.851 279.501 313.975 267.459 308.5 247C295.48 198.346 358.768 169.179 413.687 143.869C414.97 143.277 416.249 142.688 417.522 142.101C419.432 140.846 421.374 139.612 423.347 138.403Z" fill="#A63BF9"/>
</g>
<g filter="url(#filter9_f_2_67)">
<path fill-rule="evenodd" clip-rule="evenodd" d="M517.69 618.068C514.142 617.033 510.77 615.664 507.63 614L503 614.73C511.545 630.544 527.968 640.356 545.474 638.272C554.135 637.241 561.854 633.442 568 627.762C562.425 630.531 555.88 632.125 548.88 632.125C535.75 632.125 524.223 626.516 517.69 618.068Z" fill="#6FB1FF"/>
</g>
<g filter="url(#filter10_f_2_67)">
<path fill-rule="evenodd" clip-rule="evenodd" d="M566.185 665.666C547.892 675.95 541.058 720.427 536.623 749.288C536.419 750.612 536.221 751.903 536.027 753.156C536.027 766.72 535.601 773.486 536.644 773.721C538.05 774.037 542.125 762.49 553.506 739.733C568.759 709.232 569.159 735.454 569.538 760.346C569.774 775.896 570.003 790.927 573.841 791.287C575.772 791.468 577.234 790.725 578.325 789.26L566.185 665.666Z" fill="#8934B1"/>
</g>
<defs>
<filter id="filter0_f_2_67" x="142" y="45" width="855.999" height="932.86" filterUnits="userSpaceOnUse" color-interpolation-filters="sRGB">
<feFlood flood-opacity="0" result="BackgroundImageFix"/>
<feBlend mode="normal" in="SourceGraphic" in2="BackgroundImageFix" result="shape"/>
<feGaussianBlur stdDeviation="5" result="effect1_foregroundBlur_2_67"/>
</filter>
<filter id="filter1_f_2_67" x="0.187988" y="0.502014" width="860.825" height="933.86" filterUnits="userSpaceOnUse" color-interpolation-filters="sRGB">
<feFlood flood-opacity="0" result="BackgroundImageFix"/>
<feBlend mode="normal" in="SourceGraphic" in2="BackgroundImageFix" result="shape"/>
<feGaussianBlur stdDeviation="5" result="effect1_foregroundBlur_2_67"/>
</filter>
<filter id="filter2_f_2_67" x="710.063" y="120.063" width="110.004" height="110.004" filterUnits="userSpaceOnUse" color-interpolation-filters="sRGB">
<feFlood flood-opacity="0" result="BackgroundImageFix"/>
<feBlend mode="normal" in="SourceGraphic" in2="BackgroundImageFix" result="shape"/>
<feGaussianBlur stdDeviation="10" result="effect1_foregroundBlur_2_67"/>
</filter>
<filter id="filter3_f_2_67" x="719.93" y="130.082" width="90.0026" height="90.0026" filterUnits="userSpaceOnUse" color-interpolation-filters="sRGB">
<feFlood flood-opacity="0" result="BackgroundImageFix"/>
<feBlend mode="normal" in="SourceGraphic" in2="BackgroundImageFix" result="shape"/>
<feGaussianBlur stdDeviation="10" result="effect1_foregroundBlur_2_67"/>
</filter>
<filter id="filter4_f_2_67" x="612.063" y="913.063" width="110.004" height="110.004" filterUnits="userSpaceOnUse" color-interpolation-filters="sRGB">
<feFlood flood-opacity="0" result="BackgroundImageFix"/>
<feBlend mode="normal" in="SourceGraphic" in2="BackgroundImageFix" result="shape"/>
<feGaussianBlur stdDeviation="10" result="effect1_foregroundBlur_2_67"/>
</filter>
<filter id="filter5_f_2_67" x="621.93" y="923.082" width="90.0026" height="90.0026" filterUnits="userSpaceOnUse" color-interpolation-filters="sRGB">
<feFlood flood-opacity="0" result="BackgroundImageFix"/>
<feBlend mode="normal" in="SourceGraphic" in2="BackgroundImageFix" result="shape"/>
<feGaussianBlur stdDeviation="10" result="effect1_foregroundBlur_2_67"/>
</filter>
<filter id="filter6_f_2_67" x="166.063" y="619.063" width="110.004" height="110.004" filterUnits="userSpaceOnUse" color-interpolation-filters="sRGB">
<feFlood flood-opacity="0" result="BackgroundImageFix"/>
<feBlend mode="normal" in="SourceGraphic" in2="BackgroundImageFix" result="shape"/>
<feGaussianBlur stdDeviation="10" result="effect1_foregroundBlur_2_67"/>
</filter>
<filter id="filter7_f_2_67" x="379" y="309.943" width="158.987" height="321.843" filterUnits="userSpaceOnUse" color-interpolation-filters="sRGB">
<feFlood flood-opacity="0" result="BackgroundImageFix"/>
<feBlend mode="normal" in="SourceGraphic" in2="BackgroundImageFix" result="shape"/>
<feGaussianBlur stdDeviation="20" result="effect1_foregroundBlur_2_67"/>
</filter>
<filter id="filter8_f_2_67" x="256.784" y="98.4026" width="206.563" height="243.161" filterUnits="userSpaceOnUse" color-interpolation-filters="sRGB">
<feFlood flood-opacity="0" result="BackgroundImageFix"/>
<feBlend mode="normal" in="SourceGraphic" in2="BackgroundImageFix" result="shape"/>
<feGaussianBlur stdDeviation="20" result="effect1_foregroundBlur_2_67"/>
</filter>
<filter id="filter9_f_2_67" x="483" y="594" width="105" height="64.5499" filterUnits="userSpaceOnUse" color-interpolation-filters="sRGB">
<feFlood flood-opacity="0" result="BackgroundImageFix"/>
<feBlend mode="normal" in="SourceGraphic" in2="BackgroundImageFix" result="shape"/>
<feGaussianBlur stdDeviation="10" result="effect1_foregroundBlur_2_67"/>
</filter>
<filter id="filter10_f_2_67" x="505.941" y="635.666" width="102.384" height="185.648" filterUnits="userSpaceOnUse" color-interpolation-filters="sRGB">
<feFlood flood-opacity="0" result="BackgroundImageFix"/>
<feBlend mode="normal" in="SourceGraphic" in2="BackgroundImageFix" result="shape"/>
<feGaussianBlur stdDeviation="15" result="effect1_foregroundBlur_2_67"/>
</filter>
<linearGradient id="paint0_linear_2_67" x1="727.259" y1="196.001" x2="903.216" y2="206.937" gradientUnits="userSpaceOnUse">
<stop offset="0.0001" stop-color="#60ECFF" stop-opacity="0"/>
<stop offset="0.473958" stop-color="#7DEEFE" stop-opacity="0.7"/>
<stop offset="1" stop-color="#60ECFF" stop-opacity="0"/>
</linearGradient>
<linearGradient id="paint1_linear_2_67" x1="737.927" y1="190.038" x2="863.61" y2="197.849" gradientUnits="userSpaceOnUse">
<stop offset="0.0001" stop-color="#60ECFF" stop-opacity="0"/>
<stop offset="0.473958" stop-color="#7DEEFE" stop-opacity="0.7"/>
<stop offset="1" stop-color="#60ECFF" stop-opacity="0"/>
</linearGradient>
<linearGradient id="paint2_linear_2_67" x1="629.259" y1="989.001" x2="805.216" y2="999.937" gradientUnits="userSpaceOnUse">
<stop offset="0.0001" stop-color="#FDA2FF" stop-opacity="0"/>
<stop offset="0.473958" stop-color="#FB31FF" stop-opacity="0.7"/>
<stop offset="1" stop-color="#FEB3FF" stop-opacity="0"/>
</linearGradient>
<linearGradient id="paint3_linear_2_67" x1="639.927" y1="983.038" x2="765.61" y2="990.849" gradientUnits="userSpaceOnUse">
<stop offset="0.0001" stop-color="#FDA2FF" stop-opacity="0"/>
<stop offset="0.473958" stop-color="#FB31FF" stop-opacity="0.7"/>
<stop offset="1" stop-color="#FEB3FF" stop-opacity="0"/>
</linearGradient>
<linearGradient id="paint4_linear_2_67" x1="183.259" y1="695.001" x2="359.216" y2="705.937" gradientUnits="userSpaceOnUse">
<stop offset="0.0001" stop-color="#E1A3FF" stop-opacity="0"/>
<stop offset="0.473958" stop-color="#D06FFE" stop-opacity="0.7"/>
<stop offset="1" stop-color="#DA8CFF" stop-opacity="0"/>
</linearGradient>
</defs>
</svg>
