<svg width="664" height="713" viewBox="0 0 664 713" fill="none" xmlns="http://www.w3.org/2000/svg">
<path d="M435.346 415.041C437.375 434.45 435.867 448.419 431.341 458.583C426.845 468.68 419.299 475.182 408.866 479.539C398.371 483.921 384.997 486.114 368.949 487.543C359.268 488.405 348.707 488.984 337.283 489.609C329.768 490.021 321.879 490.453 313.624 491C300.04 491.001 287.41 491.494 275.854 491.945C270.183 492.167 264.77 492.378 259.631 492.516C243.934 492.938 230.786 492.676 220.204 490.043C209.694 487.427 201.807 482.495 196.488 473.584C191.121 464.595 188.26 451.38 188.26 431.985C188.26 393.773 198.667 366.862 218.449 348.473C238.278 330.039 267.753 319.955 306.338 315.92C344.77 311.901 375.25 320.121 396.973 337.521C418.697 354.921 431.855 381.655 435.346 415.041Z" fill="#6FB1FF" stroke="#FB31FF" stroke-width="3"/>
<path d="M381.333 406.902C384.72 418.219 384.887 426.098 382.943 431.689C381.044 437.152 376.977 440.853 370.816 443.515C364.575 446.212 356.396 447.742 346.676 448.891C341.261 449.532 335.546 450.038 329.514 450.572C324.64 451.004 319.558 451.454 314.259 452.008C302.568 453.23 291.734 454.342 282.015 454.615C272.283 454.888 263.86 454.311 256.962 452.256C250.125 450.219 244.861 446.755 241.256 441.242C237.617 435.679 235.49 427.758 235.49 416.493C235.49 394.677 241.658 378.914 253.195 367.977C264.797 356.979 282.172 350.532 305.233 348.12C328.091 345.73 343.922 350.398 355.563 360.386C367.313 370.467 375.157 386.265 381.333 406.902Z" fill="#4A85CB" stroke="#FB31FF" stroke-width="5"/>
<path d="M92.391 290.708C94.5565 286.861 99.3057 285.313 103.322 287.143L201.781 332.009C206.798 334.295 208.345 340.678 204.931 345.007L193.995 358.877C191.266 362.338 186.346 363.139 182.66 360.723L94.5744 302.988C90.8341 300.536 89.6332 295.606 91.8273 291.709L92.391 290.708Z" fill="#6FB1FF" stroke="#8934B1" stroke-width="3"/>
<mask id="path-4-inside-1_3_132" fill="white">
<path fill-rule="evenodd" clip-rule="evenodd" d="M35.0799 300.09C36.3444 300.744 37.6597 301.335 39.0229 301.86C57.4754 308.958 77.7052 301.01 84.2074 284.107C90.7096 267.204 81.022 247.748 62.5695 240.649C61.2063 240.125 59.8335 239.683 58.4572 239.32L55.1915 247.809C66.7992 255.285 72.672 267.719 68.6211 278.249C64.5702 288.78 51.8782 294.072 38.2532 291.841L35.0799 300.09Z"/>
</mask>
<path fill-rule="evenodd" clip-rule="evenodd" d="M35.0799 300.09C36.3444 300.744 37.6597 301.335 39.0229 301.86C57.4754 308.958 77.7052 301.01 84.2074 284.107C90.7096 267.204 81.022 247.748 62.5695 240.649C61.2063 240.125 59.8335 239.683 58.4572 239.32L55.1915 247.809C66.7992 255.285 72.672 267.719 68.6211 278.249C64.5702 288.78 51.8782 294.072 38.2532 291.841L35.0799 300.09Z" fill="#6FB1FF"/>
<path d="M35.0799 300.09L32.2799 299.013L31.3149 301.522L33.703 302.756L35.0799 300.09ZM58.4572 239.32L59.2215 236.419L56.6223 235.734L55.6572 238.243L58.4572 239.32ZM55.1915 247.809L52.3915 246.732L51.5153 249.01L53.5672 250.332L55.1915 247.809ZM38.2532 291.841L38.7381 288.881L36.3295 288.486L35.4533 290.764L38.2532 291.841ZM40.1 299.06C38.8393 298.575 37.6241 298.028 36.4569 297.425L33.703 302.756C35.0648 303.459 36.4802 304.096 37.9458 304.66L40.1 299.06ZM81.4074 283.03C75.5871 298.16 57.2424 305.654 40.1 299.06L37.9458 304.66C57.7084 312.262 79.8233 303.86 87.0074 285.184L81.4074 283.03ZM61.4924 243.449C78.6348 250.044 87.2278 267.9 81.4074 283.03L87.0074 285.184C94.1914 266.509 83.4092 245.452 63.6466 237.849L61.4924 243.449ZM57.6929 242.221C58.9633 242.556 60.2317 242.964 61.4924 243.449L63.6466 237.849C62.181 237.286 60.7037 236.81 59.2215 236.419L57.6929 242.221ZM55.6572 238.243L52.3915 246.732L57.9915 248.886L61.2572 240.397L55.6572 238.243ZM71.4211 279.326C76.1676 266.988 69.1236 253.213 56.8158 245.287L53.5672 250.332C64.4747 257.356 69.1765 268.45 65.8212 277.172L71.4211 279.326ZM37.7684 294.802C52.2152 297.168 66.6746 291.665 71.4211 279.326L65.8212 277.172C62.4659 285.894 51.5412 290.977 38.7381 288.881L37.7684 294.802ZM35.4533 290.764L32.2799 299.013L37.8799 301.167L41.0532 292.918L35.4533 290.764Z" fill="#8934B1" mask="url(#path-4-inside-1_3_132)"/>
<path d="M530.559 385.462C531.328 381.741 529.426 378.055 525.921 376.472L430.908 333.554C423.081 330.018 415.088 338.765 419.743 345.771L434.74 368.343C435.793 369.927 437.387 371.101 439.256 371.669L518.499 395.752C523.448 397.256 528.759 394.173 529.787 389.198L530.559 385.462Z" fill="#6FB1FF" stroke="#8934B1" stroke-width="3"/>
<mask id="path-7-inside-2_3_132" fill="white">
<path fill-rule="evenodd" clip-rule="evenodd" d="M558.275 431.379C557.057 430.897 555.853 430.346 554.668 429.725C538.628 421.317 532.246 403.179 540.413 389.212C548.581 375.246 568.204 370.739 584.244 379.148C585.429 379.769 586.562 380.443 587.639 381.165L583.537 388.179C571.303 384.597 558.952 387.691 553.864 396.392C548.775 405.094 552.561 416.647 562.261 424.562L558.275 431.379Z"/>
</mask>
<path fill-rule="evenodd" clip-rule="evenodd" d="M558.275 431.379C557.057 430.897 555.853 430.346 554.668 429.725C538.628 421.317 532.246 403.179 540.413 389.212C548.581 375.246 568.204 370.739 584.244 379.148C585.429 379.769 586.562 380.443 587.639 381.165L583.537 388.179C571.303 384.597 558.952 387.691 553.864 396.392C548.775 405.094 552.561 416.647 562.261 424.562L558.275 431.379Z" fill="#6FB1FF"/>
<path d="M558.275 431.379L560.932 432.771L559.572 435.098L557.053 434.102L558.275 431.379ZM587.639 381.165L589.429 378.738L591.657 380.231L590.296 382.558L587.639 381.165ZM583.537 388.179L586.194 389.572L584.956 391.69L582.581 390.994L583.537 388.179ZM562.261 424.562L564.273 422.301L566.157 423.838L564.918 425.955L562.261 424.562ZM556.182 427.135C557.273 427.707 558.379 428.213 559.498 428.655L557.053 434.102C555.735 433.581 554.433 432.986 553.154 432.315L556.182 427.135ZM543.07 390.605C535.895 402.874 541.32 419.345 556.182 427.135L553.154 432.315C535.936 423.289 528.596 403.483 537.756 387.819L543.07 390.605ZM582.73 381.737C567.868 373.947 550.245 378.335 543.07 390.605L537.756 387.819C546.916 372.156 568.541 367.532 585.759 376.558L582.73 381.737ZM585.85 383.591C584.861 382.928 583.82 382.309 582.73 381.737L585.759 376.558C587.039 377.229 588.263 377.958 589.429 378.738L585.85 383.591ZM590.296 382.558L586.194 389.572L580.88 386.786L584.982 379.772L590.296 382.558ZM551.206 394.999C557.299 384.582 571.506 381.561 584.494 385.365L582.581 390.994C571.101 387.633 560.605 390.801 556.521 397.785L551.206 394.999ZM560.249 426.824C549.952 418.421 545.114 405.417 551.206 394.999L556.521 397.785C552.436 404.77 555.171 414.873 564.273 422.301L560.249 426.824ZM564.918 425.955L560.932 432.771L555.618 429.986L559.604 423.169L564.918 425.955Z" fill="#8934B1" mask="url(#path-7-inside-2_3_132)"/>
<g filter="url(#filter0_f_3_132)">
<rect x="541.597" y="308.129" width="70" height="70" rx="35" transform="rotate(-142.584 541.597 308.129)" fill="url(#paint0_linear_3_132)"/>
</g>
<g filter="url(#filter1_f_3_132)">
<rect x="61.5968" y="201.129" width="70" height="70" rx="35" transform="rotate(-142.584 61.5968 201.129)" fill="url(#paint1_linear_3_132)"/>
</g>
<g filter="url(#filter2_f_3_132)">
<rect x="102.597" y="532.129" width="70" height="70" rx="35" transform="rotate(-142.584 102.597 532.129)" fill="url(#paint2_linear_3_132)"/>
</g>
<circle cx="239" cy="172" r="2" fill="#7DEEFE"/>
<path d="M372.9 294.23C372.896 294.23 372.844 294.548 372.048 295.159C371.25 295.771 369.985 296.454 368.229 297.172C364.736 298.6 359.604 300.041 353.194 301.339C340.392 303.931 322.71 305.907 303.339 306.121C283.958 306.336 265.81 304.899 252.761 302.618C246.222 301.474 241.042 300.132 237.642 298.716C235.927 298.001 234.783 297.315 234.139 296.712C233.516 296.128 233.59 295.867 233.604 295.816C233.604 295.815 233.605 295.814 233.605 295.814L232.158 295.416L233.605 295.814C233.682 295.533 233.98 295.063 234.904 294.488C235.808 293.925 237.135 293.372 238.911 292.852C242.455 291.815 247.489 290.989 253.763 290.343C266.294 289.054 283.481 288.508 302.932 288.292C322.368 288.076 340.164 288.455 353.089 289.619C359.564 290.203 364.743 290.978 368.277 291.949C370.055 292.438 371.315 292.95 372.1 293.451C372.488 293.698 372.701 293.905 372.809 294.051C372.885 294.155 372.898 294.21 372.9 294.23Z" fill="#6EB1FF" stroke="#8934B1" stroke-width="3"/>
<path d="M362.469 119.122C362.469 120.056 362.116 120.821 361.343 121.519C360.522 122.26 359.216 122.927 357.356 123.48C353.635 124.586 348.212 125.092 341.553 125.248C334.924 125.403 327.208 125.21 318.957 124.975C318.221 124.954 317.481 124.932 316.738 124.911C309.155 124.693 301.184 124.464 293.291 124.459C278.867 124.451 265.776 126.552 255.499 128.201C253.36 128.544 251.343 128.868 249.462 129.149C243.921 129.976 239.719 130.405 236.927 130.008C235.547 129.812 234.715 129.439 234.236 128.995C233.809 128.6 233.502 128.001 233.503 126.924C233.504 124.733 235.088 121.644 238.479 118.096C241.804 114.617 246.636 110.94 252.58 107.581C264.47 100.863 280.616 95.5289 297.598 95.5389C314.696 95.5491 331.103 98.9874 343.194 103.785C349.246 106.185 354.151 108.901 357.514 111.645C360.94 114.443 362.471 117.023 362.469 119.122Z" fill="#6FB1FF" stroke="#FB31FF" stroke-width="3"/>
<rect x="431.465" y="70.0946" width="19" height="83" rx="8.5" transform="rotate(30.023 431.465 70.0946)" fill="#6FB1FF" stroke="#8934B1" stroke-width="3"/>
<rect x="148.984" y="93.6916" width="18.7042" height="83" rx="8.5" transform="rotate(-38.2701 148.984 93.6916)" fill="#6FB1FF" stroke="#8934B1" stroke-width="3"/>
<path d="M476.941 179.489C477.291 206.176 457.925 230.919 425.615 249.245C393.359 267.541 348.517 279.23 298.743 279.883C248.96 280.536 209.794 270.281 183.035 253.159C156.355 236.088 142.021 212.213 141.619 185.373C145.974 161.395 159.039 140.942 183.337 126.27C207.739 111.535 243.55 102.586 293.384 101.932C343.26 101.278 389.136 107.287 422.574 120.243C456.067 133.22 476.593 152.939 476.941 179.489Z" fill="#6FB1FF" stroke="#FB31FF" stroke-width="3"/>
<path d="M431.08 183.376C431.282 202.57 416.584 220.468 391.838 233.761C367.163 247.016 332.867 255.46 294.808 255.86C256.74 256.261 226.852 248.734 206.483 236.258C186.195 223.832 175.395 206.546 175.137 187.198C178.509 169.887 188.474 155.111 207.007 144.511C225.651 133.848 253.021 127.383 291.137 126.982C329.292 126.58 364.348 131.028 389.858 140.501C415.453 150.006 430.879 164.322 431.08 183.376Z" fill="#4A85CB" stroke="#FB31FF" stroke-width="3"/>
<path fill-rule="evenodd" clip-rule="evenodd" d="M271.617 215.209C273.971 222.466 279.061 229.169 286.5 234C303.5 245.039 321.656 230.567 331.123 215.988C331.239 215.81 331.353 215.632 331.464 215.454L325.607 215.43C318.562 220.758 309.114 223.826 298.856 223.397C289.811 223.018 281.62 219.981 275.302 215.224L271.617 215.209Z" fill="#203E62"/>
<path d="M246.699 159.691C234.615 154.443 233.345 180.377 234.22 194C236.629 187.777 239.869 175.13 244.072 170.286C248.276 165.443 264.651 180.041 271 188.45C267.935 181.05 258.784 164.938 246.699 159.691Z" fill="#203E62"/>
<path d="M339.928 159.691C353.319 154.444 354.726 180.377 353.756 194C351.088 187.777 347.497 175.13 342.839 170.286C338.181 165.443 320.035 180.041 313 188.45C316.396 181.05 326.537 164.938 339.928 159.691Z" fill="#203E62"/>
<circle cx="330" cy="170" r="2" fill="#7DEEFE"/>
<circle cx="239" cy="170" r="2" fill="#7DEEFE"/>
<g filter="url(#filter3_f_3_132)">
<path d="M600.794 297C648.577 371.934 677.113 523.063 408.999 528.109C73.8562 534.416 237.182 689.84 314.1 684.884" stroke="#F4AEFF"/>
</g>
<path d="M631.794 324C679.577 398.934 708.113 550.063 439.999 555.109C104.856 561.416 268.182 716.84 345.1 711.884" stroke="#F4AEFF"/>
<defs>
<filter id="filter0_f_3_132" x="480.063" y="204.063" width="110.004" height="110.004" filterUnits="userSpaceOnUse" color-interpolation-filters="sRGB">
<feFlood flood-opacity="0" result="BackgroundImageFix"/>
<feBlend mode="normal" in="SourceGraphic" in2="BackgroundImageFix" result="shape"/>
<feGaussianBlur stdDeviation="10" result="effect1_foregroundBlur_3_132"/>
</filter>
<filter id="filter1_f_3_132" x="0.0627441" y="97.0627" width="110.004" height="110.004" filterUnits="userSpaceOnUse" color-interpolation-filters="sRGB">
<feFlood flood-opacity="0" result="BackgroundImageFix"/>
<feBlend mode="normal" in="SourceGraphic" in2="BackgroundImageFix" result="shape"/>
<feGaussianBlur stdDeviation="10" result="effect1_foregroundBlur_3_132"/>
</filter>
<filter id="filter2_f_3_132" x="41.0627" y="428.063" width="110.004" height="110.004" filterUnits="userSpaceOnUse" color-interpolation-filters="sRGB">
<feFlood flood-opacity="0" result="BackgroundImageFix"/>
<feBlend mode="normal" in="SourceGraphic" in2="BackgroundImageFix" result="shape"/>
<feGaussianBlur stdDeviation="10" result="effect1_foregroundBlur_3_132"/>
</filter>
<filter id="filter3_f_3_132" x="198.5" y="289.731" width="441.001" height="402.769" filterUnits="userSpaceOnUse" color-interpolation-filters="sRGB">
<feFlood flood-opacity="0" result="BackgroundImageFix"/>
<feBlend mode="normal" in="SourceGraphic" in2="BackgroundImageFix" result="shape"/>
<feGaussianBlur stdDeviation="3.5" result="effect1_foregroundBlur_3_132"/>
</filter>
<linearGradient id="paint0_linear_3_132" x1="497.259" y1="280.001" x2="673.216" y2="290.937" gradientUnits="userSpaceOnUse">
<stop offset="0.0001" stop-color="#4A767C" stop-opacity="0"/>
<stop offset="0.473958" stop-color="#155760" stop-opacity="0.7"/>
<stop offset="1" stop-color="#4A767C" stop-opacity="0"/>
</linearGradient>
<linearGradient id="paint1_linear_3_132" x1="17.2588" y1="173.001" x2="193.216" y2="183.937" gradientUnits="userSpaceOnUse">
<stop offset="0.0001" stop-color="#521854" stop-opacity="0"/>
<stop offset="0.473958" stop-color="#39023A" stop-opacity="0.7"/>
<stop offset="1" stop-color="#402840" stop-opacity="0"/>
</linearGradient>
<linearGradient id="paint2_linear_3_132" x1="58.2588" y1="504.001" x2="234.216" y2="514.937" gradientUnits="userSpaceOnUse">
<stop offset="0.0001" stop-color="#413B6B" stop-opacity="0"/>
<stop offset="0.473958" stop-color="#271C67" stop-opacity="0.7"/>
<stop offset="1" stop-color="#433765" stop-opacity="0"/>
</linearGradient>
</defs>
</svg>
